Exo-ExtraBoldItalic.ufo
<glyph name=".notdef" format="1">
  <advance width="658"/>
  <unicode hex="0000"/>
  <outline>
    <contour>
      <point x="81" y="-9" type="line"/>
      <point x="637" y="-9" type="line"/>
      <point x="637" y="547" type="line"/>
      <point x="81" y="547" type="line"/>
    </contour>
    <contour>
      <point x="526" y="171" type="line"/>
      <point x="429" y="268" type="line"/>
      <point x="526" y="366" type="line"/>
      <point x="457" y="436" type="line"/>
      <point x="360" y="338" type="line"/>
      <point x="262" y="436" type="line"/>
      <point x="192" y="366" type="line"/>
      <point x="290" y="268" type="line"/>
      <point x="192" y="171" type="line"/>
      <point x="262" y="102" type="line"/>
      <point x="360" y="199" type="line"/>
      <point x="457" y="102" type="line"/>
    </contour>
    <contour>
      <point x="158" y="68" type="line"/>
      <point x="158" y="470" type="line"/>
      <point x="560" y="470" type="line"/>
      <point x="560" y="68" type="line"/>
    </contour>
  </outline>
</glyph>
<glyph name="numbersign" format="1">
  <advance width="737"/>
  <unicode hex="0023"/>
  <note>
    GF Latin Plus glyph
  </note>
  <outline>
    <contour>
      <point x="348" y="315" type="line"/>
      <point x="383" y="416" type="line"/>
      <point x="488" y="416" type="line"/>
      <point x="454" y="315" type="line"/>
    </contour>
    <contour>
      <point x="44" y="198" type="line"/>
      <point x="191" y="198" type="line"/>
      <point x="122" y="0" type="line"/>
      <point x="239" y="0" type="line"/>
      <point x="308" y="198" type="line"/>
      <point x="409" y="198" type="line"/>
      <point x="340" y="0" type="line"/>
      <point x="457" y="0" type="line"/>
      <point x="526" y="198" type="line"/>
      <point x="706" y="198" type="line"/>
      <point x="740" y="315" type="line"/>
      <point x="571" y="315" type="line"/>
      <point x="605" y="416" type="line"/>
      <point x="775" y="416" type="line"/>
      <point x="810" y="533" type="line"/>
      <point x="642" y="533" type="line"/>
      <point x="710" y="732" type="line"/>
      <point x="592" y="732" type="line"/>
      <point x="525" y="533" type="line"/>
      <point x="424" y="533" type="line"/>
      <point x="493" y="732" type="line"/>
      <point x="376" y="732" type="line"/>
      <point x="308" y="533" type="line"/>
      <point x="150" y="533" type="line"/>
      <point x="113" y="416" type="line"/>
      <point x="266" y="416" type="line"/>
      <point x="232" y="315" type="line"/>
      <point x="81" y="315" type="line"/>
    </contour>
  </outline>
</glyph>
<glyph name="two" format="1">
  <advance width="584"/>
  <unicode hex="0032"/>
  <note>
    GF Latin Plus glyph
  </note>
  <outline>
    <contour>
      <point x="149" y="584" type="line"/>
      <point x="367" y="584" type="line" smooth="yes"/>
      <point x="412" y="584"/>
      <point x="431" y="565"/>
      <point x="431" y="529" type="curve" smooth="yes"/>
      <point x="431" y="487"/>
      <point x="402" y="433"/>
      <point x="339" y="378" type="curve" smooth="yes"/>
      <point x="64" y="138" type="line"/>
      <point x="43" y="0" type="line"/>
      <point x="552" y="0" type="line"/>
      <point x="577" y="155" type="line"/>
      <point x="305" y="155" type="line"/>
      <point x="471" y="302" type="line" smooth="yes"/>
      <point x="569" y="388"/>
      <point x="604" y="480"/>
      <point x="604" y="580" type="curve" smooth="yes"/>
      <point x="604" y="676"/>
      <point x="550" y="748"/>
      <point x="402" y="748" type="curve" smooth="yes"/>
      <point x="308" y="748"/>
      <point x="233" y="732"/>
      <point x="172" y="721" type="curve"/>
    </contour>
  </outline>
</glyph>
<glyph name="four" format="1">
  <advance width="628"/>
  <unicode hex="0034"/>
  <note>
    GF Latin Plus glyph
  </note>
  <outline>
    <contour>
      <point x="57" y="225" type="line"/>
      <point x="76" y="146" type="line"/>
      <point x="392" y="146" type="line"/>
      <point x="369" y="0" type="line"/>
      <point x="542" y="0" type="line"/>
      <point x="565" y="146" type="line"/>
      <point x="636" y="173" type="line"/>
      <point x="656" y="293" type="line"/>
      <point x="588" y="293" type="line"/>
      <point x="622" y="510" type="line"/>
      <point x="483" y="510" type="line"/>
      <point x="435" y="419" type="line"/>
      <point x="416" y="293" type="line"/>
      <point x="274" y="293" type="line"/>
      <point x="543" y="742" type="line"/>
      <point x="366" y="742" type="line"/>
    </contour>
  </outline>
</glyph>
<glyph name="question" format="1">
  <advance width="528"/>
  <unicode hex="003F"/>
  <note>
    GF Latin Plus glyph
  </note>
  <outline>
    <contour>
      <point x="130" y="552" type="line"/>
      <point x="186" y="571"/>
      <point x="238" y="584"/>
      <point x="293" y="584" type="curve" smooth="yes"/>
      <point x="353" y="584"/>
      <point x="386" y="567"/>
      <point x="386" y="524" type="curve" smooth="yes"/>
      <point x="386" y="519"/>
      <point x="386" y="514"/>
      <point x="385" y="507" type="curve" smooth="yes"/>
      <point x="381" y="484" type="line" smooth="yes"/>
      <point x="373" y="431"/>
      <point x="337" y="416"/>
      <point x="283" y="416" type="curve" smooth="yes"/>
      <point x="206" y="416" type="line"/>
      <point x="173" y="205" type="line"/>
      <point x="302" y="205" type="line"/>
      <point x="315" y="287" type="line"/>
      <point x="455" y="287"/>
      <point x="533" y="354"/>
      <point x="553" y="480" type="curve" smooth="yes"/>
      <point x="562" y="535" type="line" smooth="yes"/>
      <point x="565" y="549"/>
      <point x="566" y="563"/>
      <point x="566" y="575" type="curve" smooth="yes"/>
      <point x="566" y="672"/>
      <point x="500" y="739"/>
      <point x="372" y="739" type="curve" smooth="yes"/>
      <point x="280" y="739"/>
      <point x="205" y="712"/>
      <point x="150" y="680" type="curve"/>
    </contour>
    <component base="period" xOffset="84"/>
  </outline>
</glyph>
<glyph name="A" format="1">
  <advance width="703"/>
  <unicode hex="0041"/>
  <note>
    GF Latin Plus glyph
  </note>
  <outline>
    <contour>
      <point x="320" y="290" type="line"/>
      <point x="446" y="594" type="line"/>
      <point x="476" y="290" type="line"/>
    </contour>
    <contour>
      <point x="19" y="0" type="line"/>
      <point x="196" y="0" type="line"/>
      <point x="255" y="135" type="line"/>
      <point x="492" y="135" type="line"/>
      <point x="508" y="0" type="line"/>
      <point x="687" y="0" type="line"/>
      <point x="579" y="742" type="line"/>
      <point x="363" y="742" type="line"/>
    </contour>
    <contour>
      <point x="477" y="810" type="move" name="top"/>
    </contour>
    <contour>
      <point x="560" y="0" type="move" name="ogonek"/>
    </contour>
    <contour>
      <point x="325" y="-150" type="move" name="bottom"/>
    </contour>
  </outline>
</glyph>
<glyph name="B" format="1">
  <advance width="642"/>
  <unicode hex="0042"/>
  <note>
    GF Latin Plus glyph
  </note>
  <outline>
    <contour>
      <point x="302" y="444" type="line"/>
      <point x="324" y="587" type="line"/>
      <point x="436" y="587" type="line" smooth="yes"/>
      <point x="477" y="587"/>
      <point x="498" y="574"/>
      <point x="498" y="539" type="curve" smooth="yes"/>
      <point x="498" y="528"/>
      <point x="496" y="518"/>
      <point x="492" y="503" type="curve" smooth="yes"/>
      <point x="486" y="471"/>
      <point x="468" y="444"/>
      <point x="421" y="444" type="curve" smooth="yes"/>
    </contour>
    <contour>
      <point x="257" y="155" type="line"/>
      <point x="281" y="312" type="line"/>
      <point x="401" y="312" type="line" smooth="yes"/>
      <point x="452" y="312"/>
      <point x="475" y="294"/>
      <point x="475" y="257" type="curve" smooth="yes"/>
      <point x="475" y="249"/>
      <point x="475" y="242"/>
      <point x="473" y="233" type="curve" smooth="yes"/>
      <point x="464" y="176"/>
      <point x="440" y="155"/>
      <point x="379" y="155" type="curve" smooth="yes"/>
    </contour>
    <contour>
      <point x="60" y="0" type="line"/>
      <point x="357" y="0" type="line" smooth="yes"/>
      <point x="515" y="0"/>
      <point x="610" y="45"/>
      <point x="631" y="176" type="curve" smooth="yes"/>
      <point x="637" y="209"/>
      <point x="637" y="225"/>
      <point x="637" y="239" type="curve" smooth="yes"/>
      <point x="637" y="325"/>
      <point x="600" y="366"/>
      <point x="528" y="386" type="curve"/>
      <point x="604" y="402"/>
      <point x="653" y="462"/>
      <point x="664" y="534" type="curve" smooth="yes"/>
      <point x="668" y="553"/>
      <point x="668" y="570"/>
      <point x="668" y="586" type="curve" smooth="yes"/>
      <point x="668" y="678"/>
      <point x="628" y="742"/>
      <point x="473" y="742" type="curve" smooth="yes"/>
      <point x="176" y="742" type="line"/>
    </contour>
    <contour>
      <point x="410" y="810" type="move" name="top"/>
    </contour>
  </outline>
</glyph>
<glyph name="C" format="1">
  <advance width="592"/>
  <unicode hex="0043"/>
  <note>
    GF Latin Plus glyph
  </note>
  <outline>
    <contour>
      <point x="102" y="396" type="curve" smooth="yes"/>
      <point x="94" y="346"/>
      <point x="90" y="295"/>
      <point x="90" y="252" type="curve" smooth="yes"/>
      <point x="90" y="92"/>
      <point x="170" y="-6"/>
      <point x="342" y="-6" type="curve" smooth="yes"/>
      <point x="410" y="-6"/>
      <point x="488" y="-1"/>
      <point x="556" y="24" type="curve"/>
      <point x="577" y="160" type="line"/>
      <point x="521" y="154"/>
      <point x="475" y="149"/>
      <point x="388" y="149" type="curve" smooth="yes"/>
      <point x="293" y="149"/>
      <point x="261" y="180"/>
      <point x="261" y="250" type="curve" smooth="yes"/>
      <point x="261" y="280"/>
      <point x="266" y="320"/>
      <point x="273" y="366" type="curve" smooth="yes"/>
      <point x="305" y="567"/>
      <point x="357" y="593"/>
      <point x="451" y="593" type="curve" smooth="yes"/>
      <point x="514" y="593"/>
      <point x="586" y="581"/>
      <point x="641" y="565" type="curve"/>
      <point x="664" y="702" type="line"/>
      <point x="619" y="722"/>
      <point x="540" y="748"/>
      <point x="420" y="748" type="curve" smooth="yes"/>
      <point x="226" y="748"/>
      <point x="138" y="629"/>
    </contour>
    <contour>
      <point x="456" y="810" type="move" name="top"/>
    </contour>
    <contour>
      <point x="307" y="-150" type="move" name="bottom"/>
    </contour>
  </outline>
</glyph>
<glyph name="D" format="1">
  <advance width="692"/>
  <unicode hex="0044"/>
  <note>
    GF Latin Plus glyph
  </note>
  <outline>
    <contour>
      <point x="256" y="155" type="line"/>
      <point x="324" y="587" type="line"/>
      <point x="419" y="587" type="line" smooth="yes"/>
      <point x="509" y="587"/>
      <point x="545" y="558"/>
      <point x="545" y="475" type="curve" smooth="yes"/>
      <point x="545" y="455"/>
      <point x="541" y="419"/>
      <point x="534" y="374" type="curve" smooth="yes"/>
      <point x="510" y="226"/>
      <point x="461" y="155"/>
      <point x="358" y="155" type="curve" smooth="yes"/>
    </contour>
    <contour>
      <point x="58" y="0" type="line"/>
      <point x="340" y="0" type="line" smooth="yes"/>
      <point x="551" y="0"/>
      <point x="667" y="95"/>
      <point x="707" y="345" type="curve" smooth="yes"/>
      <point x="714" y="393"/>
      <point x="718" y="440"/>
      <point x="718" y="482" type="curve" smooth="yes"/>
      <point x="718" y="637"/>
      <point x="664" y="742"/>
      <point x="462" y="742" type="curve" smooth="yes"/>
      <point x="176" y="742" type="line"/>
    </contour>
    <contour>
      <point x="446" y="810" type="move" name="top"/>
    </contour>
    <contour>
      <point x="294" y="-150" type="move" name="bottom"/>
    </contour>
  </outline>
</glyph>
<glyph name="E" format="1">
  <advance width="599"/>
  <unicode hex="0045"/>
  <note>
    GF Latin Plus glyph
  </note>
  <outline>
    <contour>
      <point x="84" y="167" type="line" smooth="yes"/>
      <point x="61" y="19"/>
      <point x="174" y="-6"/>
      <point x="247" y="-6" type="curve" smooth="yes"/>
      <point x="345" y="-6"/>
      <point x="464" y="3"/>
      <point x="545" y="10" type="curve"/>
      <point x="568" y="156" type="line"/>
      <point x="317" y="156" type="line" smooth="yes"/>
      <point x="275" y="156"/>
      <point x="259" y="174"/>
      <point x="265" y="215" type="curve" smooth="yes"/>
      <point x="277" y="294" type="line"/>
      <point x="541" y="303" type="line"/>
      <point x="562" y="440" type="line"/>
      <point x="302" y="449" type="line"/>
      <point x="313" y="519" type="line" smooth="yes"/>
      <point x="320" y="561"/>
      <point x="337" y="582"/>
      <point x="381" y="582" type="curve" smooth="yes"/>
      <point x="635" y="582" type="line"/>
      <point x="658" y="728" type="line"/>
      <point x="566" y="736"/>
      <point x="443" y="742"/>
      <point x="355" y="742" type="curve" smooth="yes"/>
      <point x="252" y="742"/>
      <point x="168" y="698"/>
      <point x="147" y="562" type="curve" smooth="yes"/>
    </contour>
    <contour>
      <point x="430" y="810" type="move" name="top"/>
    </contour>
    <contour>
      <point x="535" y="10" type="move" name="ogonek"/>
    </contour>
    <contour>
      <point x="278" y="-150" type="move" name="bottom"/>
    </contour>
  </outline>
</glyph>
<glyph name="G" format="1">
  <advance width="662"/>
  <unicode hex="0047"/>
  <note>
    GF Latin Plus glyph
  </note>
  <outline>
    <contour>
      <point x="104" y="406" type="curve" smooth="yes"/>
      <point x="95" y="349"/>
      <point x="86" y="288"/>
      <point x="86" y="229" type="curve" smooth="yes"/>
      <point x="86" y="67"/>
      <point x="138" y="-6"/>
      <point x="279" y="-6" type="curve" smooth="yes"/>
      <point x="335" y="-6"/>
      <point x="429" y="26"/>
      <point x="468" y="50" type="curve"/>
      <point x="483" y="0" type="line"/>
      <point x="613" y="0" type="line"/>
      <point x="681" y="432" type="line"/>
      <point x="658" y="433"/>
      <point x="597" y="434"/>
      <point x="564" y="434" type="curve" smooth="yes"/>
      <point x="490" y="434"/>
      <point x="433" y="427"/>
      <point x="398" y="424" type="curve"/>
      <point x="376" y="288" type="line"/>
      <point x="492" y="288" type="line"/>
      <point x="474" y="169" type="line"/>
      <point x="448" y="162"/>
      <point x="386" y="153"/>
      <point x="340" y="153" type="curve" smooth="yes"/>
      <point x="283" y="153"/>
      <point x="261" y="187"/>
      <point x="261" y="245" type="curve" smooth="yes"/>
      <point x="261" y="276"/>
      <point x="265" y="316"/>
      <point x="273" y="368" type="curve" smooth="yes"/>
      <point x="299" y="538"/>
      <point x="332" y="594"/>
      <point x="453" y="594" type="curve" smooth="yes"/>
      <point x="561" y="594"/>
      <point x="631" y="585"/>
      <point x="670" y="578" type="curve"/>
      <point x="691" y="713" type="line"/>
      <point x="631" y="732"/>
      <point x="559" y="748"/>
      <point x="431" y="748" type="curve" smooth="yes"/>
      <point x="247" y="748"/>
      <point x="140" y="636"/>
    </contour>
    <contour>
      <point x="450" y="810" type="move" name="top"/>
    </contour>
    <contour>
      <point x="298" y="-150" type="move" name="bottom"/>
    </contour>
  </outline>
</glyph>
<glyph name="H" format="1">
  <advance width="700"/>
  <unicode hex="0048"/>
  <note>
    GF Latin Plus glyph
  </note>
  <outline>
    <contour>
      <point x="58" y="0" type="line"/>
      <point x="231" y="0" type="line"/>
      <point x="277" y="290" type="line"/>
      <point x="524" y="290" type="line"/>
      <point x="478" y="0" type="line"/>
      <point x="651" y="0" type="line"/>
      <point x="769" y="742" type="line"/>
      <point x="596" y="742" type="line"/>
      <point x="548" y="446" type="line"/>
      <point x="301" y="446" type="line"/>
      <point x="349" y="742" type="line"/>
      <point x="176" y="742" type="line"/>
    </contour>
    <contour>
      <point x="478" y="810" type="move" name="top"/>
    </contour>
    <contour>
      <point x="326" y="-150" type="move" name="bottom"/>
    </contour>
  </outline>
</glyph>
<glyph name="R" format="1">
  <advance width="639"/>
  <unicode hex="0052"/>
  <note>
    GF Latin Plus glyph
  </note>
  <outline>
    <contour>
      <point x="295" y="402" type="line"/>
      <point x="324" y="587" type="line"/>
      <point x="429" y="587" type="line" smooth="yes"/>
      <point x="473" y="587"/>
      <point x="495" y="568"/>
      <point x="495" y="528" type="curve" smooth="yes"/>
      <point x="495" y="519"/>
      <point x="495" y="509"/>
      <point x="493" y="498" type="curve" smooth="yes"/>
      <point x="482" y="429"/>
      <point x="460" y="402"/>
      <point x="396" y="402" type="curve" smooth="yes"/>
    </contour>
    <contour>
      <point x="58" y="0" type="line"/>
      <point x="231" y="0" type="line"/>
      <point x="273" y="265" type="line"/>
      <point x="281" y="265"/>
      <point x="362" y="265"/>
      <point x="369" y="265" type="curve"/>
      <point x="437" y="0" type="line"/>
      <point x="613" y="0" type="line"/>
      <point x="526" y="293" type="line"/>
      <point x="568" y="312"/>
      <point x="646" y="350"/>
      <point x="666" y="487" type="curve" smooth="yes"/>
      <point x="670" y="511"/>
      <point x="672" y="533"/>
      <point x="672" y="552" type="curve" smooth="yes"/>
      <point x="672" y="687"/>
      <point x="595" y="742"/>
      <point x="463" y="742" type="curve" smooth="yes"/>
      <point x="176" y="742" type="line"/>
    </contour>
    <contour>
      <point x="425" y="810" type="move" name="top"/>
    </contour>
    <contour>
      <point x="305" y="-150" type="move" name="bottom"/>
    </contour>
  </outline>
</glyph>
<glyph name="S" format="1">
  <advance width="575"/>
  <unicode hex="0053"/>
  <note>
    GF Latin Plus glyph
  </note>
  <outline>
    <contour>
      <point x="59" y="21" type="line"/>
      <point x="110" y="8"/>
      <point x="195" y="-6"/>
      <point x="308" y="-6" type="curve" smooth="yes"/>
      <point x="494" y="-6"/>
      <point x="563" y="54"/>
      <point x="582" y="176" type="curve" smooth="yes"/>
      <point x="593" y="246" type="line" smooth="yes"/>
      <point x="595" y="260"/>
      <point x="596" y="273"/>
      <point x="596" y="285" type="curve" smooth="yes"/>
      <point x="596" y="382"/>
      <point x="526" y="449"/>
      <point x="397" y="449" type="curve" smooth="yes"/>
      <point x="344" y="449" type="line" smooth="yes"/>
      <point x="303" y="449"/>
      <point x="286" y="464"/>
      <point x="286" y="496" type="curve" smooth="yes"/>
      <point x="286" y="502"/>
      <point x="287" y="508"/>
      <point x="288" y="515" type="curve" smooth="yes"/>
      <point x="291" y="533" type="line" smooth="yes"/>
      <point x="298" y="579"/>
      <point x="331" y="592"/>
      <point x="382" y="592" type="curve" smooth="yes"/>
      <point x="445" y="592"/>
      <point x="540" y="590"/>
      <point x="612" y="584" type="curve"/>
      <point x="633" y="720" type="line"/>
      <point x="554" y="740"/>
      <point x="473" y="748"/>
      <point x="404" y="748" type="curve" smooth="yes"/>
      <point x="250" y="748"/>
      <point x="152" y="696"/>
      <point x="129" y="553" type="curve" smooth="yes"/>
      <point x="120" y="495" type="line" smooth="yes"/>
      <point x="118" y="480"/>
      <point x="117" y="466"/>
      <point x="117" y="453" type="curve" smooth="yes"/>
      <point x="117" y="354"/>
      <point x="185" y="286"/>
      <point x="302" y="286" type="curve" smooth="yes"/>
      <point x="351" y="286" type="line" smooth="yes"/>
      <point x="404" y="286"/>
      <point x="427" y="274"/>
      <point x="427" y="243" type="curve" smooth="yes"/>
      <point x="427" y="238"/>
      <point x="427" y="233"/>
      <point x="426" y="227" type="curve" smooth="yes"/>
      <point x="423" y="209" type="line" smooth="yes"/>
      <point x="416" y="162"/>
      <point x="384" y="149"/>
      <point x="304" y="149" type="curve" smooth="yes"/>
      <point x="227" y="149"/>
      <point x="141" y="152"/>
      <point x="80" y="158" type="curve"/>
    </contour>
    <contour>
      <point x="412" y="810" type="move" name="top"/>
    </contour>
    <contour>
      <point x="260" y="-150" type="move" name="bottom"/>
    </contour>
  </outline>
</glyph>
<glyph name="X" format="1">
  <advance width="668"/>
  <unicode hex="0058"/>
  <note>
    GF Latin Plus glyph
  </note>
  <outline>
    <contour>
      <point x="13" y="0" type="line"/>
      <point x="204" y="0" type="line"/>
      <point x="394" y="266" type="line"/>
      <point x="328" y="412" type="line"/>
    </contour>
    <contour>
      <point x="395" y="465" type="line"/>
      <point x="460" y="321" type="line"/>
      <point x="785" y="742" type="line"/>
      <point x="594" y="742" type="line"/>
    </contour>
    <contour>
      <point x="332" y="311" type="line"/>
      <point x="475" y="0" type="line"/>
      <point x="662" y="0" type="line"/>
      <point x="463" y="421" type="line"/>
      <point x="315" y="742" type="line"/>
      <point x="127" y="742" type="line"/>
    </contour>
    <contour>
      <point x="458" y="810" type="move" name="top"/>
    </contour>
    <contour>
      <point x="306" y="-150" type="move" name="bottom"/>
    </contour>
  </outline>
</glyph>
<glyph name="bracketleft" format="1">
  <advance width="342"/>
  <unicode hex="005B"/>
  <note>
    GF Latin Plus glyph
  </note>
  <outline>
    <contour>
      <point x="57" y="6" type="line" smooth="yes"/>
      <point x="54" y="-14"/>
      <point x="52" y="-35"/>
      <point x="52" y="-55" type="curve" smooth="yes"/>
      <point x="52" y="-134"/>
      <point x="83" y="-210"/>
      <point x="212" y="-210" type="curve" smooth="yes"/>
      <point x="297" y="-210" type="line"/>
      <point x="318" y="-72" type="line"/>
      <point x="286" y="-72" type="line" smooth="yes"/>
      <point x="249" y="-72"/>
      <point x="229" y="-56"/>
      <point x="229" y="-14" type="curve" smooth="yes"/>
      <point x="229" y="-5"/>
      <point x="230" y="4"/>
      <point x="231" y="14" type="curve" smooth="yes"/>
      <point x="327" y="618" type="line" smooth="yes"/>
      <point x="337" y="683"/>
      <point x="368" y="704"/>
      <point x="409" y="704" type="curve" smooth="yes"/>
      <point x="442" y="704" type="line"/>
      <point x="463" y="842" type="line"/>
      <point x="378" y="842" type="line" smooth="yes"/>
      <point x="241" y="842"/>
      <point x="178" y="767"/>
      <point x="158" y="644" type="curve" smooth="yes"/>
    </contour>
  </outline>
</glyph>
<glyph name="c" format="1">
  <advance width="473"/>
  <unicode hex="0063"/>
  <note>
    GF Latin Plus glyph
  </note>
  <outline>
    <contour>
      <point x="81" y="297" type="curve" smooth="yes"/>
      <point x="75" y="260"/>
      <point x="72" y="224"/>
      <point x="72" y="201" type="curve" smooth="yes"/>
      <point x="72" y="45"/>
      <point x="148" y="-6"/>
      <point x="271" y="-6" type="curve" smooth="yes"/>
      <point x="350" y="-6"/>
      <point x="403" y="8"/>
      <point x="449" y="26" type="curve"/>
      <point x="464" y="124" type="line"/>
      <point x="327" y="124" type="line" smooth="yes"/>
      <point x="272" y="124"/>
      <point x="244" y="152"/>
      <point x="244" y="218" type="curve" smooth="yes"/>
      <point x="244" y="226"/>
      <point x="245" y="242"/>
      <point x="249" y="269" type="curve" smooth="yes"/>
      <point x="265" y="361"/>
      <point x="294" y="413"/>
      <point x="372" y="413" type="curve" smooth="yes"/>
      <point x="502" y="413" type="line"/>
      <point x="519" y="512" type="line"/>
      <point x="457" y="530"/>
      <point x="392" y="544"/>
      <point x="332" y="544" type="curve" smooth="yes"/>
      <point x="205" y="544"/>
      <point x="108" y="479"/>
    </contour>
    <contour>
      <point x="359" y="650" type="move" name="top"/>
    </contour>
    <contour>
      <point x="233" y="-150" type="move" name="bottom"/>
    </contour>
  </outline>
</glyph>
<glyph name="j" format="1">
  <advance width="268"/>
  <unicode hex="006A"/>
  <note>
    GF Latin Plus glyph
  </note>
  <outline>
    <contour>
      <point x="146" y="633" type="line" smooth="yes"/>
      <point x="144" y="620"/>
      <point x="152" y="611"/>
      <point x="165" y="611" type="curve" smooth="yes"/>
      <point x="300" y="611" type="line" smooth="yes"/>
      <point x="313" y="611"/>
      <point x="321" y="619"/>
      <point x="324" y="633" type="curve" smooth="yes"/>
      <point x="340" y="738" type="line" smooth="yes"/>
      <point x="342" y="751"/>
      <point x="337" y="761"/>
      <point x="323" y="761" type="curve" smooth="yes"/>
      <point x="189" y="761" type="line" smooth="yes"/>
      <point x="174" y="761"/>
      <point x="165" y="752"/>
      <point x="163" y="738" type="curve" smooth="yes"/>
    </contour>
    <component base="jdotless" xOffset="-1"/>
  </outline>
</glyph>
<glyph name="n" format="1">
  <advance width="596"/>
  <unicode hex="006E"/>
  <note>
    GF Latin Plus glyph
  </note>
  <outline>
    <contour>
      <point x="48" y="0" type="line"/>
      <point x="221" y="0" type="line"/>
      <point x="277" y="349" type="line"/>
      <point x="304" y="373"/>
      <point x="337" y="389"/>
      <point x="374" y="389" type="curve" smooth="yes"/>
      <point x="413" y="389"/>
      <point x="428" y="372"/>
      <point x="428" y="343" type="curve" smooth="yes"/>
      <point x="428" y="336"/>
      <point x="427" y="325"/>
      <point x="424" y="302" type="curve" smooth="yes"/>
      <point x="376" y="0" type="line"/>
      <point x="549" y="0" type="line"/>
      <point x="597" y="308" type="line" smooth="yes"/>
      <point x="609" y="378"/>
      <point x="609" y="402"/>
      <point x="609" y="425" type="curve" smooth="yes"/>
      <point x="609" y="495"/>
      <point x="560" y="544"/>
      <point x="474" y="544" type="curve" smooth="yes"/>
      <point x="400" y="544"/>
      <point x="341" y="518"/>
      <point x="298" y="485" type="curve"/>
      <point x="277" y="538" type="line"/>
      <point x="133" y="538" type="line"/>
    </contour>
    <contour>
      <point x="391" y="650" type="move" name="top"/>
    </contour>
    <contour>
      <point x="265" y="-150" type="move" name="bottom"/>
    </contour>
  </outline>
</glyph>
<glyph name="q" format="1">
  <advance width="571"/>
  <unicode hex="0071"/>
  <note>
    GF Latin Plus glyph
  </note>
  <outline>
    <contour>
      <point x="248" y="276" type="curve" smooth="yes"/>
      <point x="263" y="361"/>
      <point x="287" y="407"/>
      <point x="360" y="406" type="curve" smooth="yes"/>
      <point x="371" y="406"/>
      <point x="401" y="403"/>
      <point x="416" y="399" type="curve"/>
      <point x="379" y="165" type="line"/>
      <point x="357" y="148"/>
      <point x="328" y="132"/>
      <point x="295" y="132" type="curve" smooth="yes"/>
      <point x="261" y="132"/>
      <point x="240" y="158"/>
      <point x="240" y="212" type="curve" smooth="yes"/>
      <point x="240" y="226"/>
      <point x="243" y="248"/>
    </contour>
    <contour>
      <point x="80" y="288" type="curve" smooth="yes"/>
      <point x="74" y="248"/>
      <point x="70" y="211"/>
      <point x="70" y="177" type="curve" smooth="yes"/>
      <point x="70" y="60"/>
      <point x="112" y="-6"/>
      <point x="210" y="-6" type="curve" smooth="yes"/>
      <point x="266" y="-6"/>
      <point x="327" y="22"/>
      <point x="361" y="53" type="curve"/>
      <point x="315" y="-237" type="line"/>
      <point x="488" y="-237" type="line"/>
      <point x="606" y="507" type="line"/>
      <point x="556" y="527"/>
      <point x="457" y="544"/>
      <point x="356" y="544" type="curve" smooth="yes"/>
      <point x="222" y="544"/>
      <point x="112" y="489"/>
    </contour>
  </outline>
</glyph>
<glyph name="y" format="1">
  <advance width="582"/>
  <unicode hex="0079"/>
  <note>
    GF Latin Plus glyph
  </note>
  <outline>
    <contour>
      <point x="88" y="538" type="line"/>
      <point x="127" y="150" type="line" smooth="yes"/>
      <point x="136" y="59"/>
      <point x="168" y="9"/>
      <point x="276" y="0" type="curve"/>
      <point x="242" y="-69"/>
      <point x="183" y="-98"/>
      <point x="96" y="-115" type="curve"/>
      <point x="96" y="-237" type="line"/>
      <point x="244" y="-226"/>
      <point x="346" y="-168"/>
      <point x="429" y="9" type="curve" smooth="yes"/>
      <point x="558" y="281" type="line" smooth="yes"/>
      <point x="604" y="380"/>
      <point x="625" y="465"/>
      <point x="625" y="546" type="curve"/>
      <point x="462" y="546" type="line"/>
      <point x="460" y="496"/>
      <point x="445" y="444"/>
      <point x="429" y="402" type="curve" smooth="yes"/>
      <point x="328" y="140" type="line"/>
      <point x="307" y="141"/>
      <point x="281" y="150"/>
      <point x="279" y="187" type="curve" smooth="yes"/>
      <point x="266" y="538" type="line"/>
    </contour>
    <contour>
      <point x="378" y="650" type="move" name="top"/>
    </contour>
    <contour>
      <point x="502" y="-150" type="move" name="bottom"/>
    </contour>
  </outline>
</glyph>
<glyph name="braceleft" format="1">
  <advance width="320"/>
  <unicode hex="007B"/>
  <note>
    GF Latin Plus glyph
  </note>
  <outline>
    <contour>
      <point x="68" y="254" type="line"/>
      <point x="109" y="254"/>
      <point x="123" y="242"/>
      <point x="123" y="210" type="curve" smooth="yes"/>
      <point x="123" y="184"/>
      <point x="81" y="-24"/>
      <point x="81" y="-82" type="curve" smooth="yes"/>
      <point x="81" y="-171"/>
      <point x="138" y="-210"/>
      <point x="288" y="-210" type="curve"/>
      <point x="308" y="-81" type="line"/>
      <point x="274" y="-81"/>
      <point x="261" y="-66"/>
      <point x="261" y="-34" type="curve" smooth="yes"/>
      <point x="261" y="-2"/>
      <point x="302" y="214"/>
      <point x="302" y="249" type="curve" smooth="yes"/>
      <point x="302" y="295"/>
      <point x="270" y="323"/>
      <point x="215" y="334" type="curve"/>
      <point x="278" y="339"/>
      <point x="323" y="367"/>
      <point x="333" y="438" type="curve" smooth="yes"/>
      <point x="362" y="619" type="line" smooth="yes"/>
      <point x="372" y="684"/>
      <point x="385" y="704"/>
      <point x="433" y="704" type="curve"/>
      <point x="455" y="842" type="line"/>
      <point x="295" y="842"/>
      <point x="218" y="802"/>
      <point x="195" y="656" type="curve" smooth="yes"/>
      <point x="165" y="468" type="line" smooth="yes"/>
      <point x="159" y="428"/>
      <point x="127" y="416"/>
      <point x="93" y="413" type="curve"/>
    </contour>
  </outline>
</glyph>
<glyph name="asciitilde" format="1">
  <advance width="413"/>
  <unicode hex="007E"/>
  <note>
    GF Latin Plus glyph
  </note>
  <outline>
    <contour>
      <point x="128" y="595" type="line"/>
      <point x="158" y="630"/>
      <point x="205" y="667"/>
      <point x="259" y="667" type="curve" smooth="yes"/>
      <point x="298" y="667"/>
      <point x="336" y="627"/>
      <point x="367" y="627" type="curve" smooth="yes"/>
      <point x="404" y="627"/>
      <point x="438" y="647"/>
      <point x="462" y="669" type="curve"/>
      <point x="476" y="603" type="line"/>
      <point x="446" y="570"/>
      <point x="403" y="532"/>
      <point x="353" y="532" type="curve" smooth="yes"/>
      <point x="310" y="532"/>
      <point x="280" y="572"/>
      <point x="242" y="572" type="curve" smooth="yes"/>
      <point x="203" y="572"/>
      <point x="177" y="559"/>
      <point x="142" y="535" type="curve"/>
    </contour>
  </outline>
</glyph>
<glyph name="twosuperior" format="1">
  <advance width="415"/>
  <unicode hex="00B2"/>
  <outline>
    <contour>
      <point x="161" y="718" type="line"/>
      <point x="296" y="718" type="line" smooth="yes"/>
      <point x="323" y="718"/>
      <point x="334" y="712"/>
      <point x="334" y="694" type="curve" smooth="yes"/>
      <point x="334" y="678"/>
      <point x="314" y="648"/>
      <point x="279" y="614" type="curve" smooth="yes"/>
      <point x="114" y="462" type="line"/>
      <point x="97" y="355" type="line"/>
      <point x="434" y="355" type="line"/>
      <point x="454" y="476" type="line"/>
      <point x="297" y="476" type="line"/>
      <point x="374" y="546" type="line" smooth="yes"/>
      <point x="454" y="622"/>
      <point x="480" y="677"/>
      <point x="480" y="746" type="curve" smooth="yes"/>
      <point x="480" y="811"/>
      <point x="444" y="846"/>
      <point x="344" y="846" type="curve" smooth="yes"/>
      <point x="274" y="846"/>
      <point x="222" y="834"/>
      <point x="178" y="825" type="curve"/>
    </contour>
  </outline>
</glyph>
<glyph name="paragraph" format="1">
  <advance width="574"/>
  <unicode hex="00B6"/>
  <note>
    GF Latin Plus glyph
  </note>
  <outline>
    <contour>
      <point x="212" y="481" type="curve" smooth="yes"/>
      <point x="227" y="572" type="line" smooth="yes"/>
      <point x="233" y="615"/>
      <point x="248" y="630"/>
      <point x="290" y="630" type="curve" smooth="yes"/>
      <point x="340" y="630" type="line"/>
      <point x="305" y="415" type="line"/>
      <point x="256" y="415" type="line" smooth="yes"/>
      <point x="229" y="415"/>
      <point x="208" y="420"/>
      <point x="208" y="449" type="curve" smooth="yes"/>
      <point x="208" y="455"/>
      <point x="209" y="465"/>
    </contour>
    <contour>
      <point x="99" y="466" type="line" smooth="yes"/>
      <point x="94" y="438"/>
      <point x="93" y="428"/>
      <point x="93" y="418" type="curve" smooth="yes"/>
      <point x="93" y="353"/>
      <point x="130" y="304"/>
      <point x="218" y="304" type="curve" smooth="yes"/>
      <point x="254" y="304"/>
      <point x="279" y="313"/>
      <point x="291" y="320" type="curve"/>
      <point x="197" y="-270" type="line"/>
      <point x="308" y="-270" type="line"/>
      <point x="451" y="630" type="line"/>
      <point x="512" y="630" type="line"/>
      <point x="413" y="0" type="line"/>
      <point x="524" y="0" type="line"/>
      <point x="624" y="628" type="line"/>
      <point x="679" y="628" type="line"/>
      <point x="697" y="742" type="line"/>
      <point x="300" y="742" type="line" smooth="yes"/>
      <point x="207" y="742"/>
      <point x="136" y="697"/>
      <point x="120" y="602" type="curve" smooth="yes"/>
    </contour>
  </outline>
</glyph>
<glyph name="cedilla" format="1">
  <advance width="242"/>
  <unicode hex="00B8"/>
  <note>
    GF Latin Plus glyph
  </note>
  <outline>
    <contour>
      <point x="12" y="-130" type="line"/>
      <point x="1" y="-200" type="line"/>
      <point x="56" y="-200" type="line" smooth="yes"/>
      <point x="143" y="-200"/>
      <point x="180" y="-158"/>
      <point x="180" y="-112" type="curve" smooth="yes"/>
      <point x="180" y="-66"/>
      <point x="146" y="-48"/>
      <point x="108" y="-48" type="curve"/>
      <point x="37" y="-63" type="line"/>
      <point x="62" y="-68"/>
      <point x="70" y="-79"/>
      <point x="70" y="-91" type="curve" smooth="yes"/>
      <point x="70" y="-105"/>
      <point x="60" y="-122"/>
      <point x="29" y="-127" type="curve" smooth="yes"/>
    </contour>
    <contour>
      <point x="178" y="19" type="line"/>
      <point x="101" y="19" type="line"/>
      <point x="37" y="-63" type="line"/>
      <point x="114" y="-63" type="line"/>
    </contour>
  </outline>
</glyph>
<glyph name="AE" format="1">
  <advance width="997"/>
  <unicode hex="00C6"/>
  <note>
    GF Latin Plus glyph
  </note>
  <outline>
    <contour>
      <point x="378" y="281" type="line"/>
      <point x="552" y="544" type="line"/>
      <point x="510" y="281" type="line"/>
    </contour>
    <contour>
      <point x="9" y="0" type="line"/>
      <point x="178" y="0" type="line"/>
      <point x="278" y="135" type="line"/>
      <point x="487" y="135" type="line"/>
      <point x="485" y="105" type="line" smooth="yes"/>
      <point x="482" y="20"/>
      <point x="540" y="-6"/>
      <point x="651" y="-6" type="curve" smooth="yes"/>
      <point x="651" y="-6"/>
      <point x="856" y="0"/>
      <point x="948" y="13" type="curve"/>
      <point x="971" y="156" type="line"/>
      <point x="722" y="156" type="line" smooth="yes"/>
      <point x="690" y="156"/>
      <point x="645" y="157"/>
      <point x="655" y="215" type="curve" smooth="yes"/>
      <point x="667" y="292" type="line"/>
      <point x="946" y="302" type="line"/>
      <point x="967" y="438" type="line"/>
      <point x="691" y="448" type="line"/>
      <point x="701" y="508" type="line" smooth="yes"/>
      <point x="710" y="563"/>
      <point x="718" y="582"/>
      <point x="778" y="582" type="curve" smooth="yes"/>
      <point x="1038" y="582" type="line"/>
      <point x="1061" y="727" type="line"/>
      <point x="962" y="736"/>
      <point x="829" y="742"/>
      <point x="768" y="742" type="curve" smooth="yes"/>
      <point x="634" y="742"/>
      <point x="497" y="712"/>
      <point x="391" y="557" type="curve" smooth="yes"/>
    </contour>
    <contour>
      <point x="671" y="810" type="move" name="top"/>
    </contour>
  </outline>
</glyph>
<glyph name="Eth" format="1">
  <advance width="692"/>
  <unicode hex="00D0"/>
  <note>
    GF Latin Plus glyph
  </note>
  <outline>
    <contour>
      <point x="55" y="317" type="line"/>
      <point x="379" y="317" type="line"/>
      <point x="397" y="429" type="line"/>
      <point x="73" y="429" type="line"/>
    </contour>
    <component base="D"/>
  </outline>
</glyph>
<glyph name="germandbls" format="1">
  <advance width="613"/>
  <unicode hex="00DF"/>
  <note>
    GF Latin Plus glyph
  </note>
  <outline>
    <contour>
      <point x="40" y="0" type="line"/>
      <point x="213" y="0" type="line"/>
      <point x="288" y="474" type="line" smooth="yes"/>
      <point x="304" y="579"/>
      <point x="333" y="617"/>
      <point x="392" y="617" type="curve" smooth="yes"/>
      <point x="441" y="617"/>
      <point x="470" y="596"/>
      <point x="470" y="560" type="curve" smooth="yes"/>
      <point x="470" y="492"/>
      <point x="352" y="421"/>
      <point x="352" y="321" type="curve" smooth="yes"/>
      <point x="352" y="226"/>
      <point x="448" y="211"/>
      <point x="448" y="168" type="curve" smooth="yes"/>
      <point x="448" y="165"/>
      <point x="448" y="160"/>
      <point x="446" y="152" type="curve" smooth="yes"/>
      <point x="444" y="135"/>
      <point x="431" y="123"/>
      <point x="382" y="123" type="curve" smooth="yes"/>
      <point x="352" y="123"/>
      <point x="323" y="123"/>
      <point x="282" y="126" type="curve"/>
      <point x="264" y="10" type="line"/>
      <point x="293" y="0"/>
      <point x="348" y="-6"/>
      <point x="406" y="-6" type="curve" smooth="yes"/>
      <point x="479" y="-6"/>
      <point x="588" y="15"/>
      <point x="608" y="140" type="curve" smooth="yes"/>
      <point x="616" y="189"/>
      <point x="616" y="199"/>
      <point x="616" y="208" type="curve" smooth="yes"/>
      <point x="616" y="301"/>
      <point x="524" y="331"/>
      <point x="524" y="373" type="curve" smooth="yes"/>
      <point x="524" y="426"/>
      <point x="628" y="478"/>
      <point x="628" y="589" type="curve" smooth="yes"/>
      <point x="628" y="681"/>
      <point x="567" y="769"/>
      <point x="407" y="769" type="curve" smooth="yes"/>
      <point x="238" y="769"/>
      <point x="146" y="672"/>
      <point x="127" y="553" type="curve" smooth="yes"/>
    </contour>
  </outline>
</glyph>
<glyph name="eth" format="1">
  <advance width="577"/>
  <unicode hex="00F0"/>
  <note>
    GF Latin Plus glyph
  </note>
  <outline>
    <contour>
      <point x="77" y="268" type="curve" smooth="yes"/>
      <point x="72" y="242"/>
      <point x="71" y="216"/>
      <point x="71" y="183" type="curve" smooth="yes"/>
      <point x="71" y="60"/>
      <point x="142" y="-6"/>
      <point x="288" y="-6" type="curve" smooth="yes"/>
      <point x="463" y="-6"/>
      <point x="551" y="40"/>
      <point x="580" y="237" type="curve" smooth="yes"/>
      <point x="581" y="242"/>
      <point x="518" y="368"/>
      <point x="518" y="372" type="curve" smooth="yes"/>
      <point x="518" y="462"/>
      <point x="433" y="526"/>
      <point x="329" y="526" type="curve" smooth="yes"/>
      <point x="186" y="526"/>
      <point x="111" y="485"/>
    </contour>
    <contour>
      <point x="246" y="244" type="curve" smooth="yes"/>
      <point x="263" y="365"/>
      <point x="282" y="392"/>
      <point x="349" y="392" type="curve" smooth="yes"/>
      <point x="397" y="392"/>
      <point x="416" y="379"/>
      <point x="416" y="343" type="curve" smooth="yes"/>
      <point x="416" y="320"/>
      <point x="413" y="295"/>
      <point x="408" y="262" type="curve" smooth="yes"/>
      <point x="391" y="156"/>
      <point x="371" y="132"/>
      <point x="306" y="132" type="curve" smooth="yes"/>
      <point x="262" y="132"/>
      <point x="242" y="145"/>
      <point x="242" y="191" type="curve" smooth="yes"/>
      <point x="242" y="206"/>
      <point x="243" y="223"/>
    </contour>
    <contour>
      <point x="200" y="652" type="line"/>
      <point x="382" y="651"/>
      <point x="461" y="611"/>
      <point x="461" y="460" type="curve" smooth="yes"/>
      <point x="461" y="424"/>
      <point x="457" y="382"/>
      <point x="449" y="335" type="curve"/>
      <point x="580" y="239" type="line"/>
      <point x="593" y="320"/>
      <point x="601" y="389"/>
      <point x="601" y="450" type="curve" smooth="yes"/>
      <point x="601" y="678"/>
      <point x="481" y="763"/>
      <point x="218" y="763" type="curve"/>
    </contour>
    <contour>
      <point x="217" y="605" type="line"/>
      <point x="232" y="552" type="line"/>
      <point x="618" y="708" type="line"/>
      <point x="604" y="761" type="line"/>
    </contour>
  </outline>
</glyph>
<glyph name="divide" format="1">
  <advance width="609"/>
  <unicode hex="00F7"/>
  <note>
    GF Latin Plus glyph
  </note>
  <outline>
    <contour>
      <point x="315" y="518" type="line" smooth="yes"/>
      <point x="313" y="504"/>
      <point x="322" y="496"/>
      <point x="336" y="496" type="curve" smooth="yes"/>
      <point x="436" y="496" type="line" smooth="yes"/>
      <point x="450" y="496"/>
      <point x="461" y="500"/>
      <point x="464" y="518" type="curve" smooth="yes"/>
      <point x="478" y="607" type="line" smooth="yes"/>
      <point x="480" y="623"/>
      <point x="475" y="632"/>
      <point x="457" y="632" type="curve" smooth="yes"/>
      <point x="358" y="632" type="line" smooth="yes"/>
      <point x="342" y="632"/>
      <point x="332" y="622"/>
      <point x="330" y="607" type="curve" smooth="yes"/>
    </contour>
    <contour>
      <point x="250" y="103" type="line" smooth="yes"/>
      <point x="248" y="89"/>
      <point x="256" y="80"/>
      <point x="270" y="80" type="curve" smooth="yes"/>
      <point x="369" y="80" type="line" smooth="yes"/>
      <point x="383" y="80"/>
      <point x="395" y="85"/>
      <point x="398" y="103" type="curve" smooth="yes"/>
      <point x="412" y="192" type="line" smooth="yes"/>
      <point x="415" y="208"/>
      <point x="409" y="216"/>
      <point x="391" y="216" type="curve" smooth="yes"/>
      <point x="291" y="216" type="line" smooth="yes"/>
      <point x="275" y="216"/>
      <point x="266" y="206"/>
      <point x="263" y="192" type="curve" smooth="yes"/>
    </contour>
    <component base="minus"/>
  </outline>
</glyph>
<glyph name="thorn" format="1">
  <advance width="578"/>
  <unicode hex="00FE"/>
  <note>
    GF Latin Plus glyph
  </note>
  <outline>
    <contour>
      <point x="10" y="-237" type="line"/>
      <point x="183" y="-237" type="line"/>
      <point x="223" y="12" type="line"/>
      <point x="245" y="0"/>
      <point x="287" y="-6"/>
      <point x="329" y="-6" type="curve" smooth="yes"/>
      <point x="452" y="-6"/>
      <point x="551" y="69"/>
      <point x="579" y="241" type="curve" smooth="yes"/>
      <point x="584" y="279"/>
      <point x="589" y="316"/>
      <point x="589" y="350" type="curve" smooth="yes"/>
      <point x="589" y="478"/>
      <point x="542" y="544"/>
      <point x="410" y="544" type="curve" smooth="yes"/>
      <point x="372" y="544"/>
      <point x="338" y="543"/>
      <point x="307" y="540" type="curve"/>
      <point x="342" y="763" type="line"/>
      <point x="169" y="763" type="line"/>
    </contour>
    <contour>
      <point x="244" y="150" type="curve"/>
      <point x="285" y="405" type="line"/>
      <point x="359" y="406" type="line" smooth="yes"/>
      <point x="401" y="406"/>
      <point x="418" y="377"/>
      <point x="418" y="319" type="curve" smooth="yes"/>
      <point x="418" y="304"/>
      <point x="416" y="289"/>
      <point x="414" y="273" type="curve" smooth="yes"/>
      <point x="397" y="175"/>
      <point x="364" y="140"/>
      <point x="306" y="140" type="curve" smooth="yes"/>
      <point x="280" y="140"/>
      <point x="261" y="144"/>
    </contour>
  </outline>
</glyph>
<glyph name="Ohorn" format="1">
  <advance width="704"/>
  <unicode hex="01A0"/>
  <note>
    GF Latin Plus glyph
  </note>
  <outline>
    <contour>
      <point x="473" y="649" type="line"/>
      <point x="627" y="649" type="line" smooth="yes"/>
      <point x="722" y="649"/>
      <point x="793" y="720"/>
      <point x="814" y="851" type="curve"/>
      <point x="696" y="851" type="line"/>
      <point x="683" y="769"/>
      <point x="653" y="742"/>
      <point x="609" y="742" type="curve" smooth="yes"/>
      <point x="487" y="742" type="line"/>
    </contour>
    <component base="O"/>
    <contour>
      <point x="454" y="810" type="move" name="top"/>
    </contour>
    <contour>
      <point x="322" y="-150" type="move" name="bottom"/>
    </contour>
  </outline>
</glyph>
<glyph name="quotesinglbase" format="1">
  <advance width="238"/>
  <unicode hex="201A"/>
  <note>
    GF Latin Plus glyph
  </note>
  <outline>
    <contour>
      <point x="41" y="18" type="line" smooth="yes"/>
      <point x="41" y="16"/>
      <point x="41" y="14"/>
      <point x="41" y="13" type="curve" smooth="yes"/>
      <point x="41" y="0"/>
      <point x="49" y="-6"/>
      <point x="61" y="-6" type="curve" smooth="yes"/>
      <point x="71" y="-6" type="line"/>
      <point x="68" y="-28" type="line" smooth="yes"/>
      <point x="66" y="-38"/>
      <point x="62" y="-57"/>
      <point x="34" y="-57" type="curve"/>
      <point x="23" y="-121" type="line"/>
      <point x="24" y="-121"/>
      <point x="41" y="-124"/>
      <point x="62" y="-124" type="curve" smooth="yes"/>
      <point x="107" y="-124"/>
      <point x="174" y="-111"/>
      <point x="186" y="-31" type="curve" smooth="yes"/>
      <point x="211" y="126" type="line" smooth="yes"/>
      <point x="211" y="128"/>
      <point x="212" y="130"/>
      <point x="212" y="132" type="curve" smooth="yes"/>
      <point x="212" y="144"/>
      <point x="206" y="151"/>
      <point x="193" y="151" type="curve" smooth="yes"/>
      <point x="85" y="151" type="line" smooth="yes"/>
      <point x="70" y="151"/>
      <point x="61" y="143"/>
      <point x="58" y="126" type="curve" smooth="yes"/>
    </contour>
  </outline>
</glyph>
<glyph name="daggerdbl" format="1">
  <advance width="488"/>
  <unicode hex="2021"/>
  <note>
    GF Latin Plus glyph
  </note>
  <outline>
    <contour>
      <point x="34" y="133" type="line"/>
      <point x="166" y="116" type="line"/>
      <point x="149" y="-72" type="line"/>
      <point x="302" y="-72" type="line"/>
      <point x="343" y="117" type="line"/>
      <point x="483" y="133" type="line"/>
      <point x="504" y="265" type="line"/>
      <point x="371" y="281" type="line"/>
      <point x="393" y="421" type="line"/>
      <point x="531" y="435" type="line"/>
      <point x="552" y="567" type="line"/>
      <point x="418" y="581" type="line"/>
      <point x="436" y="770" type="line"/>
      <point x="283" y="770" type="line"/>
      <point x="241" y="581" type="line"/>
      <point x="103" y="567" type="line"/>
      <point x="82" y="435" type="line"/>
      <point x="216" y="421" type="line"/>
      <point x="194" y="282" type="line"/>
      <point x="55" y="265" type="line"/>
    </contour>
  </outline>
</glyph>
<glyph name="zerosuperior" format="1">
  <advance width="415"/>
  <unicode hex="2070"/>
  <outline>
    <contour>
      <point x="242" y="507" type="curve" smooth="yes"/>
      <point x="271" y="690" type="line" smooth="yes"/>
      <point x="275" y="715"/>
      <point x="285" y="725"/>
      <point x="306" y="725" type="curve" smooth="yes"/>
      <point x="339" y="725" type="line" smooth="yes"/>
      <point x="352" y="725"/>
      <point x="362" y="722"/>
      <point x="362" y="702" type="curve" smooth="yes"/>
      <point x="362" y="698"/>
      <point x="362" y="695"/>
      <point x="362" y="690" type="curve" smooth="yes"/>
      <point x="333" y="506" type="line" smooth="yes"/>
      <point x="328" y="480"/>
      <point x="314" y="472"/>
      <point x="294" y="472" type="curve" smooth="yes"/>
      <point x="271" y="472" type="line" smooth="yes"/>
      <point x="250" y="472"/>
      <point x="241" y="478"/>
      <point x="241" y="496" type="curve" smooth="yes"/>
      <point x="241" y="499"/>
      <point x="242" y="503"/>
    </contour>
    <contour>
      <point x="102" y="485" type="line" smooth="yes"/>
      <point x="100" y="473"/>
      <point x="99" y="463"/>
      <point x="99" y="453" type="curve" smooth="yes"/>
      <point x="99" y="389"/>
      <point x="136" y="351"/>
      <point x="217" y="351" type="curve" smooth="yes"/>
      <point x="313" y="351" type="line" smooth="yes"/>
      <point x="398" y="351"/>
      <point x="453" y="402"/>
      <point x="467" y="485" type="curve" smooth="yes"/>
      <point x="501" y="705" type="line" smooth="yes"/>
      <point x="503" y="718"/>
      <point x="505" y="730"/>
      <point x="505" y="740" type="curve" smooth="yes"/>
      <point x="505" y="809"/>
      <point x="464" y="846"/>
      <point x="392" y="846" type="curve" smooth="yes"/>
      <point x="296" y="846" type="line" smooth="yes"/>
      <point x="207" y="846"/>
      <point x="151" y="796"/>
      <point x="137" y="705" type="curve" smooth="yes"/>
    </contour>
  </outline>
</glyph>
<glyph name="sixsuperior" format="1">
  <advance width="415"/>
  <unicode hex="2076"/>
  <outline>
    <contour>
      <point x="256" y="550" type="curve"/>
      <point x="306" y="550" type="line" smooth="yes"/>
      <point x="322" y="550"/>
      <point x="332" y="545"/>
      <point x="332" y="531" type="curve" smooth="yes"/>
      <point x="332" y="527"/>
      <point x="332" y="523"/>
      <point x="331" y="517" type="curve" smooth="yes"/>
      <point x="328" y="498" type="line" smooth="yes"/>
      <point x="325" y="480"/>
      <point x="315" y="472"/>
      <point x="298" y="472" type="curve" smooth="yes"/>
      <point x="285" y="472" type="line" smooth="yes"/>
      <point x="260" y="472"/>
      <point x="251" y="481"/>
      <point x="251" y="512" type="curve" smooth="yes"/>
      <point x="251" y="522"/>
      <point x="253" y="536"/>
    </contour>
    <contour>
      <point x="115" y="488" type="curve" smooth="yes"/>
      <point x="116" y="382"/>
      <point x="160" y="350"/>
      <point x="245" y="350" type="curve" smooth="yes"/>
      <point x="313" y="350" type="line" smooth="yes"/>
      <point x="392" y="350"/>
      <point x="448" y="387"/>
      <point x="461" y="473" type="curve" smooth="yes"/>
      <point x="473" y="544" type="line" smooth="yes"/>
      <point x="475" y="555"/>
      <point x="476" y="567"/>
      <point x="476" y="577" type="curve" smooth="yes"/>
      <point x="476" y="626"/>
      <point x="452" y="664"/>
      <point x="365" y="664" type="curve" smooth="yes"/>
      <point x="314" y="664"/>
      <point x="296" y="661"/>
      <point x="271" y="649" type="curve"/>
      <point x="279" y="697"/>
      <point x="300" y="725"/>
      <point x="359" y="725" type="curve" smooth="yes"/>
      <point x="472" y="725" type="line"/>
      <point x="488" y="832" type="line"/>
      <point x="454" y="842"/>
      <point x="411" y="846"/>
      <point x="362" y="846" type="curve" smooth="yes"/>
      <point x="200" y="846"/>
      <point x="114" y="727"/>
    </contour>
  </outline>
</glyph>
<glyph name="sevensuperior" format="1">
  <advance width="415"/>
  <unicode hex="2077"/>
  <outline>
    <contour>
      <point x="139" y="707" type="line"/>
      <point x="320" y="707" type="line"/>
      <point x="139" y="355" type="line"/>
      <point x="290" y="355" type="line"/>
      <point x="508" y="788" type="line"/>
      <point x="485" y="842" type="line"/>
      <point x="160" y="842" type="line"/>
    </contour>
  </outline>
</glyph>
<glyph name="dong" format="1">
  <advance width="609"/>
  <unicode hex="20AB"/>
  <note>
    GF Latin Plus glyph
  </note>
  <outline>
    <contour>
      <point x="55" y="-48" type="line"/>
      <point x="549" y="-48" type="line"/>
      <point x="571" y="90" type="line"/>
      <point x="76" y="90" type="line"/>
    </contour>
    <contour>
      <point x="362" y="650" type="line"/>
      <point x="698" y="650" type="line"/>
      <point x="709" y="717" type="line"/>
      <point x="372" y="717" type="line"/>
    </contour>
    <contour>
      <point x="370" y="458" type="curve" smooth="yes"/>
      <point x="395" y="458"/>
      <point x="420" y="448"/>
      <point x="438" y="439" type="curve"/>
      <point x="417" y="312" type="line"/>
      <point x="399" y="301"/>
      <point x="371" y="287"/>
      <point x="337" y="287" type="curve" smooth="yes"/>
      <point x="290" y="287"/>
      <point x="266" y="297"/>
      <point x="266" y="340" type="curve" smooth="yes"/>
      <point x="266" y="396"/>
      <point x="298" y="458"/>
    </contour>
    <contour>
      <point x="89" y="297" type="curve" smooth="yes"/>
      <point x="89" y="190"/>
      <point x="148" y="149"/>
      <point x="253" y="149" type="curve" smooth="yes"/>
      <point x="304" y="149"/>
      <point x="359" y="172"/>
      <point x="400" y="205" type="curve"/>
      <point x="419" y="155" type="line"/>
      <point x="565" y="155" type="line"/>
      <point x="664" y="783" type="line"/>
      <point x="492" y="783" type="line"/>
      <point x="457" y="564" type="line"/>
      <point x="423" y="576"/>
      <point x="378" y="587"/>
      <point x="332" y="587" type="curve" smooth="yes"/>
      <point x="149" y="587"/>
      <point x="89" y="424"/>
    </contour>
  </outline>
</glyph>
<glyph name="cedi" format="1">
  <advance width="609"/>
  <unicode hex="20B5"/>
  <note>
    GF Latin Plus glyph
  </note>
  <outline>
    <contour>
      <point x="396" y="-84" type="line"/>
      <point x="536" y="793" type="line"/>
      <point x="460" y="793" type="line"/>
      <point x="320" y="-84" type="line"/>
    </contour>
    <contour>
      <point x="93" y="241" type="curve" smooth="yes"/>
      <point x="93" y="38"/>
      <point x="187" y="-6"/>
      <point x="328" y="-6" type="curve" smooth="yes"/>
      <point x="442" y="-6"/>
      <point x="514" y="7"/>
      <point x="564" y="26" type="curve"/>
      <point x="584" y="151" type="line"/>
      <point x="542" y="144"/>
      <point x="486" y="140"/>
      <point x="391" y="140" type="curve" smooth="yes"/>
      <point x="291" y="140"/>
      <point x="250" y="163"/>
      <point x="250" y="254" type="curve" smooth="yes"/>
      <point x="250" y="420"/>
      <point x="321" y="592"/>
      <point x="480" y="592" type="curve" smooth="yes"/>
      <point x="528" y="592"/>
      <point x="603" y="588"/>
      <point x="652" y="583" type="curve"/>
      <point x="672" y="708" type="line"/>
      <point x="637" y="720"/>
      <point x="565" y="739"/>
      <point x="456" y="739" type="curve" smooth="yes"/>
      <point x="253" y="739"/>
      <point x="93" y="545"/>
    </contour>
  </outline>
</glyph>
<glyph name="ruble" format="1">
  <advance width="609"/>
  <unicode hex="20BD"/>
  <note>
    GF Latin Plus glyph
  </note>
  <outline>
    <contour>
      <point x="198" y="95" type="line"/>
      <point x="503" y="95" type="line"/>
      <point x="516" y="180" type="line"/>
      <point x="220" y="180" type="line"/>
    </contour>
    <contour>
      <point x="26" y="95" type="line"/>
      <point x="188" y="95" type="line"/>
      <point x="202" y="180" type="line"/>
      <point x="40" y="180" type="line"/>
    </contour>
    <contour>
      <point x="316" y="405" type="line"/>
      <point x="344" y="587" type="line"/>
      <point x="415" y="587" type="line" smooth="yes"/>
      <point x="455" y="587"/>
      <point x="472" y="568"/>
      <point x="472" y="528" type="curve" smooth="yes"/>
      <point x="472" y="462"/>
      <point x="446" y="405"/>
      <point x="386" y="405" type="curve" smooth="yes"/>
    </contour>
    <contour>
      <point x="88" y="0" type="line"/>
      <point x="252" y="0" type="line"/>
      <point x="294" y="268" type="line"/>
      <point x="310" y="264"/>
      <point x="363" y="256"/>
      <point x="390" y="256" type="curve" smooth="yes"/>
      <point x="570" y="256"/>
      <point x="640" y="402"/>
      <point x="640" y="552" type="curve" smooth="yes"/>
      <point x="640" y="719"/>
      <point x="546" y="742"/>
      <point x="460" y="742" type="curve" smooth="yes"/>
      <point x="206" y="742" type="line"/>
    </contour>
    <contour>
      <point x="62" y="320" type="line"/>
      <point x="223" y="320" type="line"/>
      <point x="236" y="405" type="line"/>
      <point x="75" y="405" type="line"/>
    </contour>
  </outline>
</glyph>
<glyph name="literSign" format="1">
  <advance width="511"/>
  <unicode hex="2113"/>
  <outline>
    <contour>
      <point x="302" y="422" type="curve"/>
      <point x="319" y="563" type="line" smooth="yes"/>
      <point x="323" y="596"/>
      <point x="341" y="609"/>
      <point x="362" y="609" type="curve" smooth="yes"/>
      <point x="386" y="609"/>
      <point x="398" y="596"/>
      <point x="398" y="574" type="curve" smooth="yes"/>
      <point x="398" y="552"/>
      <point x="373" y="491"/>
    </contour>
    <contour>
      <point x="52" y="257" type="curve"/>
      <point x="62" y="174" type="line"/>
      <point x="74" y="180"/>
      <point x="90" y="188"/>
      <point x="101" y="196" type="curve"/>
      <point x="99" y="178" type="line" smooth="yes"/>
      <point x="97" y="162"/>
      <point x="96" y="147"/>
      <point x="96" y="135" type="curve" smooth="yes"/>
      <point x="96" y="33"/>
      <point x="152" y="0"/>
      <point x="248" y="0" type="curve" smooth="yes"/>
      <point x="424" y="0" type="line"/>
      <point x="437" y="101" type="line"/>
      <point x="376" y="112" type="line" smooth="yes"/>
      <point x="296" y="126"/>
      <point x="276" y="159"/>
      <point x="276" y="205" type="curve" smooth="yes"/>
      <point x="276" y="217"/>
      <point x="278" y="229"/>
      <point x="280" y="242" type="curve" smooth="yes"/>
      <point x="281" y="259" type="line"/>
      <point x="380" y="315"/>
      <point x="541" y="512"/>
      <point x="541" y="592" type="curve" smooth="yes"/>
      <point x="541" y="699"/>
      <point x="472" y="739"/>
      <point x="382" y="739" type="curve" smooth="yes"/>
      <point x="241" y="739"/>
      <point x="160" y="677"/>
      <point x="143" y="534" type="curve" smooth="yes"/>
      <point x="116" y="312" type="line"/>
      <point x="94" y="292"/>
      <point x="73" y="274"/>
    </contour>
  </outline>
</glyph>
<glyph name="estimated" format="1">
  <advance width="890"/>
  <unicode hex="212E"/>
  <outline>
    <contour>
      <point x="233" y="353" type="curve" smooth="yes"/>
      <point x="233" y="540" type="line" smooth="yes"/>
      <point x="233" y="572"/>
      <point x="342" y="673"/>
      <point x="488" y="673" type="curve" smooth="yes"/>
      <point x="604" y="673"/>
      <point x="746" y="594"/>
      <point x="746" y="536" type="curve" smooth="yes"/>
      <point x="746" y="350" type="line" smooth="yes"/>
      <point x="746" y="336"/>
      <point x="745" y="340"/>
      <point x="728" y="340" type="curve" smooth="yes"/>
      <point x="245" y="340" type="line" smooth="yes"/>
      <point x="238" y="340"/>
      <point x="233" y="340"/>
    </contour>
    <contour>
      <point x="85" y="327" type="curve" smooth="yes"/>
      <point x="85" y="219"/>
      <point x="122" y="132"/>
      <point x="196" y="62" type="curve" smooth="yes"/>
      <point x="270" y="-8"/>
      <point x="363" y="-41"/>
      <point x="489" y="-41" type="curve" smooth="yes"/>
      <point x="573" y="-41"/>
      <point x="614" y="-32"/>
      <point x="671" y="-10" type="curve" smooth="yes"/>
      <point x="725" y="12"/>
      <point x="771" y="50"/>
      <point x="822" y="105" type="curve"/>
      <point x="747" y="105" type="line"/>
      <point x="689" y="39"/>
      <point x="592" y="-13"/>
      <point x="489" y="-13" type="curve" smooth="yes"/>
      <point x="335" y="-13"/>
      <point x="233" y="80"/>
      <point x="233" y="117" type="curve" smooth="yes"/>
      <point x="233" y="301" type="line" smooth="yes"/>
      <point x="233" y="318"/>
      <point x="239" y="317"/>
      <point x="249" y="317" type="curve" smooth="yes"/>
      <point x="895" y="317" type="line"/>
      <point x="890" y="439"/>
      <point x="848" y="542"/>
      <point x="770" y="604" type="curve" smooth="yes"/>
      <point x="691" y="666"/>
      <point x="609" y="698"/>
      <point x="489" y="698" type="curve" smooth="yes"/>
      <point x="358" y="698"/>
      <point x="271" y="661"/>
      <point x="196" y="591" type="curve" smooth="yes"/>
      <point x="121" y="521"/>
      <point x="85" y="434"/>
    </contour>
  </outline>
</glyph>
<glyph name="bulletoperator" format="1">
  <advance width="609"/>
  <unicode hex="2219"/>
  <note>
    GF Latin Plus glyph
  </note>
  <outline>
    <contour>
      <point x="279" y="306" type="line" smooth="yes"/>
      <point x="278" y="305"/>
      <point x="278" y="303"/>
      <point x="278" y="302" type="curve" smooth="yes"/>
      <point x="278" y="290"/>
      <point x="287" y="283"/>
      <point x="299" y="283" type="curve" smooth="yes"/>
      <point x="399" y="283" type="line" smooth="yes"/>
      <point x="413" y="283"/>
      <point x="424" y="288"/>
      <point x="428" y="306" type="curve" smooth="yes"/>
      <point x="443" y="404" type="line" smooth="yes"/>
      <point x="443" y="406"/>
      <point x="443" y="409"/>
      <point x="443" y="411" type="curve" smooth="yes"/>
      <point x="443" y="423"/>
      <point x="437" y="429"/>
      <point x="422" y="429" type="curve" smooth="yes"/>
      <point x="322" y="429" type="line" smooth="yes"/>
      <point x="306" y="429"/>
      <point x="296" y="419"/>
      <point x="294" y="404" type="curve" smooth="yes"/>
    </contour>
  </outline>
</glyph>
<glyph name="integral" format="1">
  <advance width="436"/>
  <unicode hex="222B"/>
  <outline>
    <contour>
      <point x="-16" y="-181" type="line"/>
      <point x="10" y="-194"/>
      <point x="48" y="-204"/>
      <point x="101" y="-204" type="curve" smooth="yes"/>
      <point x="233" y="-204"/>
      <point x="286" y="-136"/>
      <point x="305" y="-19" type="curve" smooth="yes"/>
      <point x="392" y="534" type="line" smooth="yes"/>
      <point x="403" y="600"/>
      <point x="422" y="671"/>
      <point x="493" y="671" type="curve" smooth="yes"/>
      <point x="537" y="671" type="line"/>
      <point x="554" y="777" type="line"/>
      <point x="537" y="784"/>
      <point x="503" y="800"/>
      <point x="440" y="800" type="curve" smooth="yes"/>
      <point x="309" y="800"/>
      <point x="249" y="718"/>
      <point x="230" y="600" type="curve" smooth="yes"/>
      <point x="144" y="54" type="line" smooth="yes"/>
      <point x="135" y="-1"/>
      <point x="118" y="-75"/>
      <point x="48" y="-75" type="curve" smooth="yes"/>
      <point x="0" y="-75" type="line"/>
    </contour>
  </outline>
</glyph>
<glyph name="f_f_i" format="1">
  <advance width="1060"/>
  <unicode hex="FB03"/>
  <note>
    GF Latin Plus glyph
  </note>
  <outline>
    <contour>
      <point x="75" y="400" type="line"/>
      <point x="148" y="400" type="line"/>
      <point x="85" y="0" type="line"/>
      <point x="258" y="0" type="line"/>
      <point x="321" y="400" type="line"/>
      <point x="635" y="400" type="line"/>
      <point x="656" y="538" type="line"/>
      <point x="343" y="538" type="line"/>
      <point x="346" y="567" type="line" smooth="yes"/>
      <point x="351" y="616"/>
      <point x="372" y="632"/>
      <point x="421" y="632" type="curve" smooth="yes"/>
      <point x="490" y="632" type="line"/>
      <point x="511" y="759" type="line"/>
      <point x="481" y="764"/>
      <point x="436" y="769"/>
      <point x="388" y="769" type="curve" smooth="yes"/>
      <point x="266" y="769"/>
      <point x="202" y="728"/>
      <point x="183" y="616" type="curve" smooth="yes"/>
      <point x="170" y="538" type="line"/>
      <point x="93" y="511" type="line"/>
    </contour>
    <component base="fi" xOffset="396"/>
  </outline>
</glyph>
<glyph name="B.smcp" format="1">
  <advance width="540"/>
  <note>
    GF Latin Plus glyph
  </note>
  <outline>
    <contour>
      <point x="273" y="342" type="line"/>
      <point x="286" y="421" type="line"/>
      <point x="358" y="421" type="line" smooth="yes"/>
      <point x="381" y="421"/>
      <point x="392" y="414"/>
      <point x="392" y="396" type="curve" smooth="yes"/>
      <point x="392" y="390"/>
      <point x="391" y="382"/>
      <point x="389" y="372" type="curve" smooth="yes"/>
      <point x="385" y="355"/>
      <point x="375" y="342"/>
      <point x="349" y="342" type="curve" smooth="yes"/>
    </contour>
    <contour>
      <point x="242" y="139" type="line"/>
      <point x="255" y="225" type="line"/>
      <point x="331" y="225" type="line" smooth="yes"/>
      <point x="365" y="225"/>
      <point x="378" y="218"/>
      <point x="378" y="197" type="curve" smooth="yes"/>
      <point x="378" y="192"/>
      <point x="378" y="188"/>
      <point x="376" y="175" type="curve" smooth="yes"/>
      <point x="371" y="152"/>
      <point x="358" y="139"/>
      <point x="320" y="139" type="curve" smooth="yes"/>
    </contour>
    <contour>
      <point x="56" y="0" type="line"/>
      <point x="300" y="0" type="line" smooth="yes"/>
      <point x="432" y="0"/>
      <point x="512" y="30"/>
      <point x="528" y="132" type="curve" smooth="yes"/>
      <point x="533" y="158"/>
      <point x="532" y="171"/>
      <point x="532" y="181" type="curve" smooth="yes"/>
      <point x="532" y="245"/>
      <point x="506" y="274"/>
      <point x="444" y="290" type="curve"/>
      <point x="506" y="303"/>
      <point x="544" y="350"/>
      <point x="551" y="400" type="curve" smooth="yes"/>
      <point x="553" y="414"/>
      <point x="554" y="427"/>
      <point x="554" y="440" type="curve" smooth="yes"/>
      <point x="554" y="511"/>
      <point x="522" y="560"/>
      <point x="392" y="560" type="curve" smooth="yes"/>
      <point x="143" y="560" type="line"/>
    </contour>
    <contour>
      <point x="344" y="650" type="move" name="top"/>
    </contour>
  </outline>
</glyph>
<glyph name="Eng.smcp" format="1">
  <advance width="593"/>
  <note>
    GF Latin Plus glyph
  </note>
  <outline>
    <contour>
      <point x="249" y="-170" type="line"/>
      <point x="272" y="-176"/>
      <point x="310" y="-183"/>
      <point x="350" y="-183" type="curve" smooth="yes"/>
      <point x="473" y="-183"/>
      <point x="528" y="-123"/>
      <point x="543" y="-27" type="curve" smooth="yes"/>
      <point x="557" y="66" type="line"/>
      <point x="394" y="63" type="line"/>
      <point x="383" y="-2" type="line" smooth="yes"/>
      <point x="379" y="-26"/>
      <point x="367" y="-44"/>
      <point x="338" y="-44" type="curve" smooth="yes"/>
      <point x="341" y="-44"/>
      <point x="268" y="-45"/>
      <point x="269" y="-45" type="curve"/>
    </contour>
    <component base="N.smcp"/>
  </outline>
</glyph>
<glyph name="F.smcp" format="1">
  <advance width="482"/>
  <note>
    GF Latin Plus glyph
  </note>
  <outline>
    <contour>
      <point x="54" y="0" type="line"/>
      <point x="218" y="0" type="line"/>
      <point x="249" y="188" type="line"/>
      <point x="442" y="196" type="line"/>
      <point x="462" y="319" type="line"/>
      <point x="270" y="326" type="line"/>
      <point x="278" y="378" type="line" smooth="yes"/>
      <point x="281" y="402"/>
      <point x="291" y="416"/>
      <point x="324" y="416" type="curve" smooth="yes"/>
      <point x="517" y="416" type="line"/>
      <point x="537" y="547" type="line"/>
      <point x="456" y="555"/>
      <point x="396" y="560"/>
      <point x="294" y="560" type="curve" smooth="yes"/>
      <point x="221" y="560"/>
      <point x="138" y="532"/>
      <point x="121" y="422" type="curve" smooth="yes"/>
    </contour>
    <contour>
      <point x="362" y="650" type="move" name="top"/>
    </contour>
  </outline>
</glyph>
<glyph name="H.smcp" format="1">
  <advance width="593"/>
  <note>
    GF Latin Plus glyph
  </note>
  <outline>
    <contour>
      <point x="54" y="0" type="line"/>
      <point x="218" y="0" type="line"/>
      <point x="252" y="210" type="line"/>
      <point x="416" y="210" type="line"/>
      <point x="382" y="0" type="line"/>
      <point x="546" y="0" type="line"/>
      <point x="636" y="560" type="line"/>
      <point x="472" y="560" type="line"/>
      <point x="437" y="348" type="line"/>
      <point x="274" y="348" type="line"/>
      <point x="307" y="560" type="line"/>
      <point x="143" y="560" type="line"/>
    </contour>
    <contour>
      <point x="399" y="650" type="move" name="top"/>
    </contour>
    <contour>
      <point x="275" y="-150" type="move" name="bottom"/>
    </contour>
  </outline>
</glyph>
<glyph name="Lslash.smcp" format="1">
  <advance width="454"/>
  <note>
    GF Latin Plus glyph
  </note>
  <outline>
    <contour>
      <point x="47" y="222" type="line"/>
      <point x="118" y="250" type="line"/>
      <point x="251" y="283" type="line"/>
      <point x="374" y="330" type="line"/>
      <point x="386" y="410" type="line"/>
      <point x="264" y="363" type="line"/>
      <point x="130" y="330" type="line"/>
      <point x="60" y="302" type="line"/>
    </contour>
    <component base="L.smcp"/>
  </outline>
</glyph>
<glyph name="Uhorn.smcp" format="1">
  <advance width="581"/>
  <outline>
    <contour>
      <point x="460" y="467" type="line"/>
      <point x="514" y="467" type="line" smooth="yes"/>
      <point x="608" y="467"/>
      <point x="680" y="538"/>
      <point x="700" y="669" type="curve"/>
      <point x="582" y="669" type="line"/>
      <point x="570" y="587"/>
      <point x="540" y="560"/>
      <point x="496" y="560" type="curve" smooth="yes"/>
      <point x="474" y="560" type="line"/>
    </contour>
    <component base="U.smcp"/>
    <contour>
      <point x="388" y="650" type="move" name="top"/>
    </contour>
    <contour>
      <point x="261" y="-150" type="move" name="bottom"/>
    </contour>
  </outline>
</glyph>
<glyph name="X.smcp" format="1">
  <advance width="572"/>
  <note>
    GF Latin Plus glyph
  </note>
  <outline>
    <contour>
      <point x="16" y="0" type="line"/>
      <point x="197" y="0" type="line"/>
      <point x="333" y="187" type="line"/>
      <point x="270" y="316" type="line"/>
    </contour>
    <contour>
      <point x="332" y="364" type="line"/>
      <point x="395" y="236" type="line"/>
      <point x="655" y="560" type="line"/>
      <point x="474" y="560" type="line"/>
    </contour>
    <contour>
      <point x="274" y="227" type="line"/>
      <point x="385" y="0" type="line"/>
      <point x="563" y="0" type="line"/>
      <point x="396" y="325" type="line"/>
      <point x="280" y="560" type="line"/>
      <point x="102" y="560" type="line"/>
    </contour>
    <contour>
      <point x="383" y="650" type="move" name="top"/>
    </contour>
    <contour>
      <point x="259" y="-150" type="move" name="bottom"/>
    </contour>
  </outline>
</glyph>
<glyph name="Z.smcp" format="1">
  <advance width="483"/>
  <note>
    GF Latin Plus glyph
  </note>
  <outline>
    <contour>
      <point x="35" y="0" type="line"/>
      <point x="447" y="0" type="line"/>
      <point x="470" y="139" type="line"/>
      <point x="246" y="139" type="line"/>
      <point x="507" y="430" type="line"/>
      <point x="528" y="560" type="line"/>
      <point x="124" y="560" type="line"/>
      <point x="102" y="421" type="line"/>
      <point x="318" y="421" type="line"/>
      <point x="56" y="130" type="line"/>
    </contour>
    <contour>
      <point x="346" y="650" type="move" name="top"/>
    </contour>
    <contour>
      <point x="225" y="-150" type="move" name="bottom"/>
    </contour>
  </outline>
</glyph>
<glyph name="breveinvertedcomb" format="1">
  <note>
    GF Latin Plus glyph
  </note>
  <outline>
    <contour>
      <point x="-126" y="624" type="line"/>
      <point x="-125" y="639"/>
      <point x="-123" y="652"/>
      <point x="-123" y="665" type="curve" smooth="yes"/>
      <point x="-123" y="741"/>
      <point x="-166" y="778"/>
      <point x="-244" y="778" type="curve" smooth="yes"/>
      <point x="-336" y="778"/>
      <point x="-395" y="729"/>
      <point x="-412" y="624" type="curve"/>
      <point x="-330" y="624" type="line"/>
      <point x="-321" y="681"/>
      <point x="-292" y="700"/>
      <point x="-256" y="700" type="curve" smooth="yes"/>
      <point x="-229" y="700"/>
      <point x="-204" y="687"/>
      <point x="-204" y="646" type="curve" smooth="yes"/>
      <point x="-204" y="639"/>
      <point x="-205" y="632"/>
      <point x="-206" y="624" type="curve"/>
    </contour>
    <contour>
      <point x="-269" y="650" type="move" name="_top"/>
    </contour>
  </outline>
</glyph>
<glyph name="c_k" format="1">
  <advance width="1027"/>
  <outline>
    <contour>
      <point x="361" y="124" type="curve" smooth="yes"/>
      <point x="273" y="124"/>
      <point x="244" y="152"/>
      <point x="244" y="218" type="curve" smooth="yes"/>
      <point x="244" y="226"/>
      <point x="245" y="242"/>
      <point x="249" y="269" type="curve" smooth="yes"/>
      <point x="265" y="361"/>
      <point x="294" y="413"/>
      <point x="372" y="413" type="curve" smooth="yes"/>
      <point x="502" y="413" type="line"/>
      <point x="519" y="512" type="line"/>
      <point x="457" y="530"/>
      <point x="392" y="544"/>
      <point x="332" y="544" type="curve" smooth="yes"/>
      <point x="205" y="544"/>
      <point x="108" y="479"/>
      <point x="81" y="297" type="curve" smooth="yes"/>
      <point x="75" y="260"/>
      <point x="72" y="224"/>
      <point x="72" y="201" type="curve" smooth="yes"/>
      <point x="72" y="45"/>
      <point x="149" y="-6"/>
      <point x="359" y="-6" type="curve" smooth="yes"/>
      <point x="528" y="-6"/>
      <point x="680" y="44"/>
      <point x="701" y="176" type="curve" smooth="yes"/>
      <point x="709" y="229" type="line"/>
      <point x="722" y="229"/>
      <point x="743" y="232"/>
      <point x="758" y="236" type="curve"/>
      <point x="861" y="0" type="line"/>
      <point x="1038" y="0" type="line"/>
      <point x="902" y="289" type="line"/>
      <point x="961" y="323"/>
      <point x="1028" y="388"/>
      <point x="1069" y="538" type="curve"/>
      <point x="896" y="538" type="line"/>
      <point x="870" y="434"/>
      <point x="814" y="376"/>
      <point x="729" y="357" type="curve"/>
      <point x="794" y="763" type="line"/>
      <point x="621" y="763" type="line"/>
      <point x="534" y="217" type="line" smooth="yes"/>
      <point x="523" y="149"/>
      <point x="461" y="124"/>
    </contour>
  </outline>
</glyph>
<glyph name="caroncomb.alt" format="1">
  <note>
    GF Latin Plus glyph
  </note>
  <outline>
    <contour>
      <point x="44" y="580" type="line"/>
      <point x="180" y="580" type="line"/>
      <point x="211" y="717" type="line"/>
      <point x="222" y="784" type="line"/>
      <point x="66" y="784" type="line"/>
      <point x="55" y="717" type="line"/>
    </contour>
    <contour>
      <point x="18" y="650" type="move" name="_altcaron"/>
    </contour>
  </outline>
</glyph>
<glyph name="circumflexcomb_gravecomb" format="1">
  <outline>
    <contour>
      <point x="-445" y="631" type="line"/>
      <point x="-345" y="631" type="line"/>
      <point x="-280" y="668" type="line"/>
      <point x="-229" y="631" type="line"/>
      <point x="-129" y="631" type="line"/>
      <point x="-206" y="744" type="line"/>
      <point x="-324" y="744" type="line"/>
    </contour>
    <contour>
      <point x="-460" y="718" type="line"/>
      <point x="-367" y="718" type="line"/>
      <point x="-378" y="843" type="line"/>
      <point x="-507" y="843" type="line"/>
    </contour>
    <contour>
      <point x="-281" y="650" type="move" name="_top"/>
    </contour>
  </outline>
</glyph>
<glyph name="circumflexcomb_tildecomb" format="1">
  <outline>
    <contour>
      <point x="-441" y="783" type="curve"/>
      <point x="-356" y="783" type="line"/>
      <point x="-352" y="796"/>
      <point x="-339" y="808"/>
      <point x="-317" y="808" type="curve" smooth="yes"/>
      <point x="-293" y="808"/>
      <point x="-253" y="785"/>
      <point x="-210" y="785" type="curve" smooth="yes"/>
      <point x="-147" y="785"/>
      <point x="-110" y="807"/>
      <point x="-88" y="896" type="curve"/>
      <point x="-173" y="896" type="line"/>
      <point x="-177" y="878"/>
      <point x="-190" y="867"/>
      <point x="-212" y="867" type="curve" smooth="yes"/>
      <point x="-241" y="867"/>
      <point x="-273" y="890"/>
      <point x="-318" y="890" type="curve" smooth="yes"/>
      <point x="-373" y="890"/>
      <point x="-419" y="874"/>
    </contour>
    <contour>
      <point x="-327" y="744" type="line"/>
      <point x="-450" y="631" type="line"/>
      <point x="-349" y="631" type="line"/>
      <point x="-284" y="668" type="line"/>
      <point x="-233" y="631" type="line"/>
      <point x="-134" y="631" type="line"/>
      <point x="-210" y="744" type="line"/>
    </contour>
    <contour>
      <point x="-287" y="650" type="move" name="_top"/>
    </contour>
  </outline>
</glyph>
<glyph name="d.salt" format="1">
  <advance width="573"/>
  <outline>
    <contour>
      <point x="249" y="270" type="curve" smooth="yes"/>
      <point x="270" y="387"/>
      <point x="312" y="406"/>
      <point x="362" y="406" type="curve" smooth="yes"/>
      <point x="387" y="406"/>
      <point x="406" y="400"/>
      <point x="418" y="395" type="curve"/>
      <point x="378" y="147" type="line"/>
      <point x="358" y="138"/>
      <point x="334" y="132"/>
      <point x="298" y="132" type="curve" smooth="yes"/>
      <point x="268" y="132"/>
      <point x="243" y="150"/>
      <point x="243" y="211" type="curve" smooth="yes"/>
      <point x="243" y="231"/>
      <point x="245" y="249"/>
    </contour>
    <contour>
      <point x="83" y="299" type="curve" smooth="yes"/>
      <point x="75" y="259"/>
      <point x="71" y="219"/>
      <point x="71" y="183" type="curve" smooth="yes"/>
      <point x="71" y="65"/>
      <point x="120" y="-6"/>
      <point x="284" y="-6" type="curve" smooth="yes"/>
      <point x="332" y="-6"/>
      <point x="415" y="5"/>
      <point x="534" y="34" type="curve"/>
      <point x="649" y="763" type="line"/>
      <point x="476" y="763" type="line"/>
      <point x="440" y="536" type="line"/>
      <point x="415" y="542"/>
      <point x="385" y="544"/>
      <point x="353" y="544" type="curve" smooth="yes"/>
      <point x="168" y="544"/>
      <point x="113" y="451"/>
    </contour>
    <contour>
      <point x="653" y="650" type="move" name="altcaron"/>
    </contour>
    <contour>
      <point x="247" y="-150" type="move" name="bottom"/>
    </contour>
  </outline>
</glyph>
<glyph name="degree.smcp" format="1">
  <advance width="271"/>
  <note>
    GF Latin Plus glyph
  </note>
  <outline>
    <contour>
      <point x="217" y="515" type="curve" smooth="yes"/>
      <point x="243" y="515"/>
      <point x="260" y="501"/>
      <point x="260" y="478" type="curve" smooth="yes"/>
      <point x="260" y="442"/>
      <point x="237" y="421"/>
      <point x="202" y="421" type="curve" smooth="yes"/>
      <point x="176" y="421"/>
      <point x="159" y="435"/>
      <point x="159" y="458" type="curve" smooth="yes"/>
      <point x="159" y="492"/>
      <point x="182" y="515"/>
    </contour>
    <contour>
      <point x="85" y="455" type="curve" smooth="yes"/>
      <point x="86" y="392"/>
      <point x="128" y="352"/>
      <point x="191" y="352" type="curve" smooth="yes"/>
      <point x="294" y="352"/>
      <point x="335" y="416"/>
      <point x="334" y="482" type="curve" smooth="yes"/>
      <point x="333" y="544"/>
      <point x="293" y="585"/>
      <point x="229" y="585" type="curve" smooth="yes"/>
      <point x="128" y="585"/>
      <point x="85" y="518"/>
    </contour>
  </outline>
</glyph>
<glyph name="dieresisbelowcomb" format="1">
  <note>
    GF Latin Plus glyph
  </note>
  <outline>
    <component base="dieresis" xOffset="-570" yOffset="-850"/>
    <contour>
      <point x="-269" y="-150" type="move" name="_bottom"/>
    </contour>
  </outline>
</glyph>
<glyph name="dollar.smcp" format="1">
  <advance width="479"/>
  <note>
    GF Latin Plus glyph
  </note>
  <outline>
    <contour>
      <point x="58" y="21" type="line"/>
      <point x="98" y="7"/>
      <point x="160" y="-5"/>
      <point x="197" y="-6" type="curve"/>
      <point x="188" y="-68" type="line"/>
      <point x="278" y="-68" type="line"/>
      <point x="288" y="-6" type="line"/>
      <point x="369" y="-4"/>
      <point x="451" y="8"/>
      <point x="471" y="146" type="curve" smooth="yes"/>
      <point x="476" y="183"/>
      <point x="476" y="192"/>
      <point x="476" y="206" type="curve" smooth="yes"/>
      <point x="476" y="274"/>
      <point x="449" y="352"/>
      <point x="335" y="352" type="curve" smooth="yes"/>
      <point x="299" y="352" type="line" smooth="yes"/>
      <point x="266" y="352"/>
      <point x="261" y="360"/>
      <point x="261" y="373" type="curve" smooth="yes"/>
      <point x="261" y="376"/>
      <point x="262" y="380"/>
      <point x="264" y="390" type="curve" smooth="yes"/>
      <point x="269" y="411"/>
      <point x="280" y="417"/>
      <point x="319" y="417" type="curve" smooth="yes"/>
      <point x="379" y="417"/>
      <point x="438" y="415"/>
      <point x="488" y="409" type="curve"/>
      <point x="507" y="530" type="line"/>
      <point x="467" y="546"/>
      <point x="427" y="553"/>
      <point x="377" y="556" type="curve"/>
      <point x="387" y="620" type="line"/>
      <point x="296" y="620" type="line"/>
      <point x="286" y="555" type="line"/>
      <point x="201" y="553"/>
      <point x="118" y="517"/>
      <point x="102" y="419" type="curve" smooth="yes"/>
      <point x="92" y="369"/>
      <point x="92" y="357"/>
      <point x="92" y="337" type="curve" smooth="yes"/>
      <point x="92" y="282"/>
      <point x="112" y="198"/>
      <point x="238" y="198" type="curve" smooth="yes"/>
      <point x="273" y="198" type="line" smooth="yes"/>
      <point x="300" y="198"/>
      <point x="307" y="190"/>
      <point x="307" y="175" type="curve" smooth="yes"/>
      <point x="307" y="173"/>
      <point x="306" y="166"/>
      <point x="304" y="156" type="curve" smooth="yes"/>
      <point x="301" y="139"/>
      <point x="289" y="132"/>
      <point x="254" y="132" type="curve" smooth="yes"/>
      <point x="186" y="132"/>
      <point x="109" y="138"/>
      <point x="78" y="141" type="curve"/>
    </contour>
  </outline>
</glyph>
<glyph name="eight.oldstyle" format="1">
  <advance width="609"/>
  <outline>
    <contour>
      <point x="320" y="512" type="curve" smooth="yes"/>
      <point x="325" y="550" type="line" smooth="yes"/>
      <point x="332" y="594"/>
      <point x="352" y="601"/>
      <point x="384" y="601" type="curve" smooth="yes"/>
      <point x="426" y="601" type="line" smooth="yes"/>
      <point x="448" y="601"/>
      <point x="468" y="597"/>
      <point x="468" y="567" type="curve" smooth="yes"/>
      <point x="468" y="562"/>
      <point x="466" y="557"/>
      <point x="465" y="550" type="curve" smooth="yes"/>
      <point x="460" y="512" type="line" smooth="yes"/>
      <point x="454" y="474"/>
      <point x="442" y="452"/>
      <point x="401" y="452" type="curve" smooth="yes"/>
      <point x="360" y="452" type="line" smooth="yes"/>
      <point x="332" y="452"/>
      <point x="317" y="460"/>
      <point x="317" y="489" type="curve" smooth="yes"/>
      <point x="317" y="495"/>
      <point x="318" y="503"/>
    </contour>
    <contour>
      <point x="259" y="195" type="curve" smooth="yes"/>
      <point x="268" y="250" type="line" smooth="yes"/>
      <point x="273" y="285"/>
      <point x="303" y="306"/>
      <point x="337" y="306" type="curve" smooth="yes"/>
      <point x="379" y="306" type="line" smooth="yes"/>
      <point x="413" y="306"/>
      <point x="429" y="288"/>
      <point x="429" y="262" type="curve" smooth="yes"/>
      <point x="429" y="259"/>
      <point x="429" y="255"/>
      <point x="429" y="250" type="curve" smooth="yes"/>
      <point x="420" y="195" type="line" smooth="yes"/>
      <point x="415" y="161"/>
      <point x="401" y="141"/>
      <point x="352" y="141" type="curve" smooth="yes"/>
      <point x="311" y="141" type="line" smooth="yes"/>
      <point x="276" y="141"/>
      <point x="258" y="151"/>
      <point x="258" y="180" type="curve" smooth="yes"/>
      <point x="258" y="184"/>
      <point x="258" y="190"/>
    </contour>
    <contour>
      <point x="81" y="161" type="line" smooth="yes"/>
      <point x="79" y="148"/>
      <point x="78" y="134"/>
      <point x="78" y="123" type="curve" smooth="yes"/>
      <point x="78" y="17"/>
      <point x="163" y="-5"/>
      <point x="255" y="-5" type="curve" smooth="yes"/>
      <point x="373" y="-5" type="line" smooth="yes"/>
      <point x="474" y="-5"/>
      <point x="565" y="22"/>
      <point x="587" y="161" type="curve" smooth="yes"/>
      <point x="604" y="262" type="line" smooth="yes"/>
      <point x="604" y="273"/>
      <point x="606" y="286"/>
      <point x="606" y="300" type="curve" smooth="yes"/>
      <point x="606" y="338"/>
      <point x="594" y="380"/>
      <point x="546" y="392" type="curve"/>
      <point x="601" y="400"/>
      <point x="622" y="478"/>
      <point x="628" y="509" type="curve" smooth="yes"/>
      <point x="641" y="593" type="line" smooth="yes"/>
      <point x="643" y="604"/>
      <point x="644" y="615"/>
      <point x="644" y="626" type="curve" smooth="yes"/>
      <point x="644" y="715"/>
      <point x="574" y="748"/>
      <point x="490" y="748" type="curve" smooth="yes"/>
      <point x="366" y="748" type="line" smooth="yes"/>
      <point x="272" y="748"/>
      <point x="182" y="706"/>
      <point x="164" y="593" type="curve" smooth="yes"/>
      <point x="151" y="509" type="line" smooth="yes"/>
      <point x="148" y="491"/>
      <point x="145" y="474"/>
      <point x="145" y="458" type="curve" smooth="yes"/>
      <point x="145" y="427"/>
      <point x="156" y="399"/>
      <point x="193" y="379" type="curve"/>
      <point x="137" y="366"/>
      <point x="105" y="313"/>
      <point x="97" y="261" type="curve" smooth="yes"/>
    </contour>
  </outline>
</glyph>
<glyph name="eight.tosf" format="1">
  <advance width="609"/>
  <outline>
    <contour>
      <point x="322" y="512" type="curve" smooth="yes"/>
      <point x="327" y="550" type="line" smooth="yes"/>
      <point x="334" y="594"/>
      <point x="353" y="601"/>
      <point x="386" y="601" type="curve" smooth="yes"/>
      <point x="427" y="601" type="line" smooth="yes"/>
      <point x="449" y="601"/>
      <point x="469" y="597"/>
      <point x="469" y="567" type="curve" smooth="yes"/>
      <point x="469" y="562"/>
      <point x="468" y="557"/>
      <point x="467" y="550" type="curve" smooth="yes"/>
      <point x="462" y="512" type="line" smooth="yes"/>
      <point x="456" y="474"/>
      <point x="444" y="452"/>
      <point x="402" y="452" type="curve" smooth="yes"/>
      <point x="362" y="452" type="line" smooth="yes"/>
      <point x="334" y="452"/>
      <point x="319" y="460"/>
      <point x="319" y="489" type="curve" smooth="yes"/>
      <point x="319" y="495"/>
      <point x="320" y="503"/>
    </contour>
    <contour>
      <point x="260" y="195" type="curve" smooth="yes"/>
      <point x="270" y="250" type="line" smooth="yes"/>
      <point x="275" y="285"/>
      <point x="305" y="306"/>
      <point x="338" y="306" type="curve" smooth="yes"/>
      <point x="381" y="306" type="line" smooth="yes"/>
      <point x="414" y="306"/>
      <point x="431" y="288"/>
      <point x="431" y="262" type="curve" smooth="yes"/>
      <point x="431" y="259"/>
      <point x="431" y="255"/>
      <point x="430" y="250" type="curve" smooth="yes"/>
      <point x="421" y="195" type="line" smooth="yes"/>
      <point x="416" y="161"/>
      <point x="403" y="141"/>
      <point x="354" y="141" type="curve" smooth="yes"/>
      <point x="312" y="141" type="line" smooth="yes"/>
      <point x="277" y="141"/>
      <point x="259" y="151"/>
      <point x="259" y="180" type="curve" smooth="yes"/>
      <point x="259" y="184"/>
      <point x="259" y="190"/>
    </contour>
    <contour>
      <point x="82" y="161" type="line" smooth="yes"/>
      <point x="80" y="148"/>
      <point x="79" y="134"/>
      <point x="79" y="123" type="curve" smooth="yes"/>
      <point x="79" y="17"/>
      <point x="165" y="-5"/>
      <point x="257" y="-5" type="curve" smooth="yes"/>
      <point x="374" y="-5" type="line" smooth="yes"/>
      <point x="476" y="-5"/>
      <point x="567" y="22"/>
      <point x="589" y="161" type="curve" smooth="yes"/>
      <point x="605" y="262" type="line" smooth="yes"/>
      <point x="606" y="273"/>
      <point x="608" y="286"/>
      <point x="608" y="300" type="curve" smooth="yes"/>
      <point x="608" y="338"/>
      <point x="596" y="380"/>
      <point x="548" y="392" type="curve"/>
      <point x="602" y="400"/>
      <point x="624" y="478"/>
      <point x="629" y="509" type="curve" smooth="yes"/>
      <point x="642" y="593" type="line" smooth="yes"/>
      <point x="644" y="604"/>
      <point x="645" y="615"/>
      <point x="645" y="626" type="curve" smooth="yes"/>
      <point x="645" y="715"/>
      <point x="576" y="748"/>
      <point x="492" y="748" type="curve" smooth="yes"/>
      <point x="368" y="748" type="line" smooth="yes"/>
      <point x="274" y="748"/>
      <point x="184" y="706"/>
      <point x="166" y="593" type="curve" smooth="yes"/>
      <point x="152" y="509" type="line" smooth="yes"/>
      <point x="150" y="491"/>
      <point x="147" y="474"/>
      <point x="147" y="458" type="curve" smooth="yes"/>
      <point x="147" y="427"/>
      <point x="158" y="399"/>
      <point x="194" y="379" type="curve"/>
      <point x="139" y="366"/>
      <point x="106" y="313"/>
      <point x="98" y="261" type="curve" smooth="yes"/>
    </contour>
  </outline>
</glyph>
<glyph name="euro.smcp" format="1">
  <advance width="510"/>
  <note>
    GF Latin Plus glyph
  </note>
  <outline>
    <contour>
      <point x="69" y="290" type="line"/>
      <point x="127" y="283" type="line"/>
      <point x="257" y="283" type="line"/>
      <point x="467" y="289" type="line"/>
      <point x="477" y="357" type="line"/>
      <point x="271" y="364" type="line"/>
      <point x="149" y="364" type="line"/>
      <point x="80" y="356" type="line"/>
    </contour>
    <contour>
      <point x="52" y="183" type="line"/>
      <point x="119" y="177" type="line"/>
      <point x="241" y="177" type="line"/>
      <point x="450" y="183" type="line"/>
      <point x="461" y="252" type="line"/>
      <point x="254" y="259" type="line"/>
      <point x="123" y="259" type="line"/>
      <point x="63" y="252" type="line"/>
    </contour>
    <component base="C.smcp" xOffset="21"/>
  </outline>
</glyph>
<glyph name="five.oldstyle" format="1">
  <advance width="606"/>
  <outline>
    <contour>
      <point x="42" y="-191" type="line"/>
      <point x="117" y="-199"/>
      <point x="203" y="-209"/>
      <point x="274" y="-209" type="curve" smooth="yes"/>
      <point x="444" y="-209"/>
      <point x="538" y="-154"/>
      <point x="560" y="-20" type="curve" smooth="yes"/>
      <point x="577" y="89" type="line" smooth="yes"/>
      <point x="580" y="102"/>
      <point x="581" y="116"/>
      <point x="581" y="128" type="curve" smooth="yes"/>
      <point x="581" y="209"/>
      <point x="536" y="267"/>
      <point x="436" y="267" type="curve" smooth="yes"/>
      <point x="377" y="267" type="line" smooth="yes"/>
      <point x="340" y="267"/>
      <point x="304" y="260"/>
      <point x="279" y="241" type="curve"/>
      <point x="308" y="383" type="line"/>
      <point x="594" y="383" type="line"/>
      <point x="618" y="538" type="line"/>
      <point x="184" y="538" type="line"/>
      <point x="90" y="77" type="line"/>
      <point x="254" y="77" type="line"/>
      <point x="263" y="106"/>
      <point x="281" y="121"/>
      <point x="319" y="121" type="curve" smooth="yes"/>
      <point x="349" y="121" type="line" smooth="yes"/>
      <point x="386" y="121"/>
      <point x="401" y="104"/>
      <point x="401" y="75" type="curve" smooth="yes"/>
      <point x="401" y="70"/>
      <point x="401" y="64"/>
      <point x="400" y="57" type="curve" smooth="yes"/>
      <point x="393" y="17" type="line" smooth="yes"/>
      <point x="388" y="-14"/>
      <point x="373" y="-54"/>
      <point x="306" y="-54" type="curve" smooth="yes"/>
      <point x="64" y="-54" type="line"/>
    </contour>
  </outline>
</glyph>
<glyph name="five.smcp" format="1">
  <advance width="494"/>
  <note>
    GF Latin Plus glyph
  </note>
  <outline>
    <contour>
      <point x="43" y="11" type="line"/>
      <point x="111" y="4"/>
      <point x="187" y="-5"/>
      <point x="246" y="-5" type="curve" smooth="yes"/>
      <point x="391" y="-5"/>
      <point x="464" y="37"/>
      <point x="480" y="141" type="curve" smooth="yes"/>
      <point x="490" y="204" type="line" smooth="yes"/>
      <point x="494" y="228"/>
      <point x="496" y="245"/>
      <point x="496" y="254" type="curve" smooth="yes"/>
      <point x="496" y="315"/>
      <point x="461" y="360"/>
      <point x="382" y="360" type="curve" smooth="yes"/>
      <point x="322" y="360" type="line" smooth="yes"/>
      <point x="307" y="360"/>
      <point x="288" y="357"/>
      <point x="270" y="348" type="curve"/>
      <point x="284" y="421" type="line"/>
      <point x="500" y="421" type="line"/>
      <point x="522" y="560" type="line"/>
      <point x="149" y="560" type="line"/>
      <point x="76" y="206" type="line"/>
      <point x="233" y="206" type="line"/>
      <point x="238" y="222"/>
      <point x="244" y="230"/>
      <point x="267" y="230" type="curve" smooth="yes"/>
      <point x="297" y="230" type="line" smooth="yes"/>
      <point x="318" y="230"/>
      <point x="326" y="221"/>
      <point x="327" y="207" type="curve" smooth="yes"/>
      <point x="327" y="202"/>
      <point x="326" y="192"/>
      <point x="321" y="170" type="curve" smooth="yes"/>
      <point x="318" y="153"/>
      <point x="303" y="134"/>
      <point x="268" y="134" type="curve" smooth="yes"/>
      <point x="62" y="134" type="line"/>
    </contour>
  </outline>
</glyph>
<glyph name="five.tosf" format="1">
  <advance width="609"/>
  <outline>
    <contour>
      <point x="43" y="-191" type="line"/>
      <point x="118" y="-199"/>
      <point x="204" y="-209"/>
      <point x="276" y="-209" type="curve" smooth="yes"/>
      <point x="445" y="-209"/>
      <point x="540" y="-154"/>
      <point x="561" y="-20" type="curve" smooth="yes"/>
      <point x="578" y="89" type="line" smooth="yes"/>
      <point x="581" y="102"/>
      <point x="582" y="116"/>
      <point x="582" y="128" type="curve" smooth="yes"/>
      <point x="582" y="209"/>
      <point x="537" y="267"/>
      <point x="437" y="267" type="curve" smooth="yes"/>
      <point x="379" y="267" type="line" smooth="yes"/>
      <point x="341" y="267"/>
      <point x="305" y="260"/>
      <point x="280" y="241" type="curve"/>
      <point x="309" y="383" type="line"/>
      <point x="596" y="383" type="line"/>
      <point x="620" y="538" type="line"/>
      <point x="185" y="538" type="line"/>
      <point x="92" y="77" type="line"/>
      <point x="255" y="77" type="line"/>
      <point x="264" y="106"/>
      <point x="283" y="121"/>
      <point x="320" y="121" type="curve" smooth="yes"/>
      <point x="350" y="121" type="line" smooth="yes"/>
      <point x="387" y="121"/>
      <point x="402" y="104"/>
      <point x="402" y="75" type="curve" smooth="yes"/>
      <point x="402" y="70"/>
      <point x="402" y="64"/>
      <point x="401" y="57" type="curve" smooth="yes"/>
      <point x="394" y="17" type="line" smooth="yes"/>
      <point x="389" y="-14"/>
      <point x="374" y="-54"/>
      <point x="307" y="-54" type="curve" smooth="yes"/>
      <point x="65" y="-54" type="line"/>
    </contour>
  </outline>
</glyph>
<glyph name="florin.smcp" format="1">
  <advance width="510"/>
  <note>
    GF Latin Plus glyph
  </note>
  <outline>
    <contour>
      <point x="13" y="-134" type="line"/>
      <point x="27" y="-144"/>
      <point x="59" y="-155"/>
      <point x="102" y="-155" type="curve" smooth="yes"/>
      <point x="195" y="-155"/>
      <point x="286" y="-111"/>
      <point x="317" y="7" type="curve" smooth="yes"/>
      <point x="384" y="266" type="line"/>
      <point x="451" y="266" type="line"/>
      <point x="480" y="372" type="line"/>
      <point x="410" y="372" type="line"/>
      <point x="417" y="398" type="line" smooth="yes"/>
      <point x="433" y="459"/>
      <point x="454" y="488"/>
      <point x="508" y="488" type="curve" smooth="yes"/>
      <point x="535" y="488" type="line"/>
      <point x="565" y="583" type="line"/>
      <point x="552" y="590"/>
      <point x="526" y="604"/>
      <point x="469" y="604" type="curve" smooth="yes"/>
      <point x="349" y="604"/>
      <point x="290" y="530"/>
      <point x="260" y="424" type="curve" smooth="yes"/>
      <point x="246" y="372" type="line"/>
      <point x="185" y="372" type="line"/>
      <point x="156" y="266" type="line"/>
      <point x="220" y="266" type="line"/>
      <point x="163" y="48" type="line" smooth="yes"/>
      <point x="146" y="-16"/>
      <point x="121" y="-39"/>
      <point x="75" y="-39" type="curve" smooth="yes"/>
      <point x="45" y="-39" type="line"/>
    </contour>
  </outline>
</glyph>
<glyph name="n.salt" format="1">
  <advance width="589"/>
  <outline>
    <contour>
      <point x="50" y="0" type="line"/>
      <point x="223" y="0" type="line"/>
      <point x="281" y="368" type="line"/>
      <point x="302" y="383"/>
      <point x="334" y="392"/>
      <point x="365" y="392" type="curve" smooth="yes"/>
      <point x="398" y="392"/>
      <point x="420" y="378"/>
      <point x="420" y="344" type="curve" smooth="yes"/>
      <point x="420" y="339"/>
      <point x="420" y="334"/>
      <point x="419" y="328" type="curve" smooth="yes"/>
      <point x="367" y="0" type="line"/>
      <point x="539" y="0" type="line"/>
      <point x="595" y="351" type="line" smooth="yes"/>
      <point x="598" y="371"/>
      <point x="600" y="391"/>
      <point x="600" y="410" type="curve" smooth="yes"/>
      <point x="600" y="489"/>
      <point x="560" y="547"/>
      <point x="409" y="547" type="curve" smooth="yes"/>
      <point x="309" y="547"/>
      <point x="224" y="529"/>
      <point x="126" y="484" type="curve"/>
    </contour>
    <contour>
      <point x="396" y="650" type="move" name="top"/>
    </contour>
    <contour>
      <point x="269" y="-150" type="move" name="bottom"/>
    </contour>
  </outline>
</glyph>
<glyph name="p.salt" format="1">
  <advance width="578"/>
  <outline>
    <contour>
      <point x="244" y="152" type="curve"/>
      <point x="285" y="406" type="line"/>
      <point x="356" y="406" type="line" smooth="yes"/>
      <point x="398" y="406"/>
      <point x="418" y="386"/>
      <point x="418" y="321" type="curve" smooth="yes"/>
      <point x="418" y="217"/>
      <point x="376" y="141"/>
      <point x="312" y="141" type="curve" smooth="yes"/>
      <point x="287" y="141"/>
      <point x="262" y="143"/>
    </contour>
    <contour>
      <point x="10" y="-241" type="line"/>
      <point x="183" y="-241" type="line"/>
      <point x="223" y="12" type="line"/>
      <point x="251" y="-1"/>
      <point x="293" y="-6"/>
      <point x="327" y="-6" type="curve" smooth="yes"/>
      <point x="530" y="-6"/>
      <point x="588" y="209"/>
      <point x="588" y="350" type="curve" smooth="yes"/>
      <point x="588" y="489"/>
      <point x="537" y="547"/>
      <point x="395" y="547" type="curve" smooth="yes"/>
      <point x="295" y="547"/>
      <point x="210" y="528"/>
      <point x="126" y="489" type="curve"/>
    </contour>
    <contour>
      <point x="399" y="650" type="move" name="top"/>
    </contour>
  </outline>
</glyph>
<glyph name="parenleft.smcp" format="1">
  <advance width="359"/>
  <note>
    GF Latin Plus glyph
  </note>
  <outline>
    <contour>
      <point x="71" y="119" type="curve" smooth="yes"/>
      <point x="72" y="-16"/>
      <point x="119" y="-100"/>
      <point x="170" y="-158" type="curve"/>
      <point x="314" y="-158" type="line"/>
      <point x="268" y="-66"/>
      <point x="236" y="17"/>
      <point x="236" y="126" type="curve" smooth="yes"/>
      <point x="234" y="310"/>
      <point x="343" y="527"/>
      <point x="441" y="648" type="curve"/>
      <point x="297" y="648" type="line"/>
      <point x="194" y="555"/>
      <point x="70" y="320"/>
    </contour>
  </outline>
</glyph>
<glyph name="ruble.smcp" format="1">
  <advance width="510"/>
  <note>
    GF Latin Plus glyph
  </note>
  <outline>
    <contour>
      <point x="174" y="66" type="line"/>
      <point x="412" y="66" type="line"/>
      <point x="424" y="140" type="line"/>
      <point x="194" y="140" type="line"/>
    </contour>
    <contour>
      <point x="30" y="66" type="line"/>
      <point x="165" y="66" type="line"/>
      <point x="176" y="140" type="line"/>
      <point x="42" y="140" type="line"/>
    </contour>
    <contour>
      <point x="280" y="320" type="line"/>
      <point x="296" y="421" type="line"/>
      <point x="334" y="421" type="line" smooth="yes"/>
      <point x="360" y="421"/>
      <point x="371" y="409"/>
      <point x="371" y="388" type="curve" smooth="yes"/>
      <point x="371" y="353"/>
      <point x="359" y="320"/>
      <point x="318" y="320" type="curve" smooth="yes"/>
    </contour>
    <contour>
      <point x="74" y="0" type="line"/>
      <point x="229" y="0" type="line"/>
      <point x="260" y="197" type="line"/>
      <point x="272" y="192"/>
      <point x="309" y="186"/>
      <point x="341" y="186" type="curve" smooth="yes"/>
      <point x="479" y="186"/>
      <point x="532" y="293"/>
      <point x="530" y="409" type="curve" smooth="yes"/>
      <point x="529" y="546"/>
      <point x="444" y="560"/>
      <point x="373" y="560" type="curve" smooth="yes"/>
      <point x="163" y="560" type="line"/>
    </contour>
    <contour>
      <point x="58" y="245" type="line"/>
      <point x="194" y="245" type="line"/>
      <point x="205" y="320" type="line"/>
      <point x="70" y="320" type="line"/>
    </contour>
  </outline>
</glyph>
<glyph name="tbar.salt" format="1">
  <advance width="349"/>
  <outline>
    <contour>
      <point x="36" y="255" type="line"/>
      <point x="363" y="255" type="line"/>
      <point x="374" y="322" type="line"/>
      <point x="47" y="322" type="line"/>
    </contour>
    <component base="t.salt"/>
  </outline>
</glyph>
<glyph name="three.smcp" format="1">
  <advance width="482"/>
  <note>
    GF Latin Plus glyph
  </note>
  <outline>
    <contour>
      <point x="112" y="426" type="line"/>
      <point x="274" y="426" type="line" smooth="yes"/>
      <point x="310" y="426"/>
      <point x="339" y="423"/>
      <point x="340" y="393" type="curve" smooth="yes"/>
      <point x="340" y="391"/>
      <point x="340" y="385"/>
      <point x="336" y="373" type="curve" smooth="yes"/>
      <point x="334" y="359"/>
      <point x="322" y="349"/>
      <point x="274" y="346" type="curve" smooth="yes"/>
      <point x="138" y="337" type="line"/>
      <point x="121" y="225" type="line"/>
      <point x="240" y="220" type="line" smooth="yes"/>
      <point x="288" y="217"/>
      <point x="313" y="203"/>
      <point x="313" y="182" type="curve" smooth="yes"/>
      <point x="313" y="181"/>
      <point x="313" y="180"/>
      <point x="311" y="165" type="curve" smooth="yes"/>
      <point x="307" y="141"/>
      <point x="293" y="133"/>
      <point x="232" y="133" type="curve" smooth="yes"/>
      <point x="59" y="133" type="line"/>
      <point x="40" y="17" type="line"/>
      <point x="108" y="3"/>
      <point x="189" y="-5"/>
      <point x="274" y="-5" type="curve" smooth="yes"/>
      <point x="382" y="-5"/>
      <point x="456" y="46"/>
      <point x="470" y="137" type="curve" smooth="yes"/>
      <point x="475" y="171"/>
      <point x="476" y="180"/>
      <point x="476" y="191" type="curve" smooth="yes"/>
      <point x="476" y="234"/>
      <point x="460" y="268"/>
      <point x="419" y="281" type="curve"/>
      <point x="473" y="299"/>
      <point x="494" y="335"/>
      <point x="501" y="384" type="curve" smooth="yes"/>
      <point x="510" y="432"/>
      <point x="510" y="444"/>
      <point x="510" y="452" type="curve" smooth="yes"/>
      <point x="510" y="544"/>
      <point x="448" y="565"/>
      <point x="349" y="565" type="curve" smooth="yes"/>
      <point x="275" y="565"/>
      <point x="199" y="553"/>
      <point x="131" y="542" type="curve"/>
    </contour>
  </outline>
</glyph>
<glyph name="two.tosf" format="1">
  <advance width="609"/>
  <outline>
    <contour>
      <point x="145" y="389" type="line"/>
      <point x="346" y="389" type="line" smooth="yes"/>
      <point x="388" y="389"/>
      <point x="405" y="378"/>
      <point x="405" y="354" type="curve" smooth="yes"/>
      <point x="405" y="332"/>
      <point x="384" y="295"/>
      <point x="288" y="236" type="curve" smooth="yes"/>
      <point x="96" y="120" type="line"/>
      <point x="77" y="0" type="line"/>
      <point x="553" y="0" type="line"/>
      <point x="578" y="155" type="line"/>
      <point x="368" y="155" type="line"/>
      <point x="447" y="204" type="line" smooth="yes"/>
      <point x="554" y="268"/>
      <point x="586" y="358"/>
      <point x="586" y="419" type="curve" smooth="yes"/>
      <point x="586" y="505"/>
      <point x="527" y="544"/>
      <point x="396" y="544" type="curve" smooth="yes"/>
      <point x="309" y="544"/>
      <point x="229" y="535"/>
      <point x="166" y="526" type="curve"/>
    </contour>
  </outline>
</glyph>
<glyph name="u.superior" format="1">
  <advance width="444"/>
  <note>
    GF Latin Plus glyph
  </note>
  <outline>
    <contour>
      <point x="98" y="420" type="line" smooth="yes"/>
      <point x="95" y="403"/>
      <point x="94" y="392"/>
      <point x="94" y="369" type="curve" smooth="yes"/>
      <point x="94" y="311"/>
      <point x="122" y="276"/>
      <point x="189" y="276" type="curve" smooth="yes"/>
      <point x="250" y="276"/>
      <point x="279" y="289"/>
      <point x="319" y="317" type="curve"/>
      <point x="328" y="280" type="line"/>
      <point x="456" y="280" type="line"/>
      <point x="518" y="672" type="line"/>
      <point x="375" y="672" type="line"/>
      <point x="338" y="435" type="line"/>
      <point x="322" y="420"/>
      <point x="302" y="409"/>
      <point x="276" y="409" type="curve" smooth="yes"/>
      <point x="254" y="409"/>
      <point x="243" y="418"/>
      <point x="243" y="432" type="curve" smooth="yes"/>
      <point x="243" y="437"/>
      <point x="244" y="443"/>
      <point x="245" y="449" type="curve" smooth="yes"/>
      <point x="280" y="672" type="line"/>
      <point x="137" y="672" type="line"/>
    </contour>
    <contour>
      <point x="341" y="752" type="move" name="top"/>
    </contour>
    <contour>
      <point x="448" y="280" type="move" name="ogonek"/>
    </contour>
    <contour>
      <point x="249" y="171" type="move" name="bottom"/>
    </contour>
  </outline>
</glyph>
<glyph name="won.smcp" format="1">
  <advance width="510"/>
  <note>
    GF Latin Plus glyph
  </note>
  <outline>
    <contour>
      <point x="119" y="560" type="line"/>
      <point x="68" y="0" type="line"/>
      <point x="213" y="0" type="line"/>
      <point x="283" y="229" type="line"/>
      <point x="299" y="0" type="line"/>
      <point x="442" y="0" type="line"/>
      <point x="564" y="560" type="line"/>
      <point x="422" y="560" type="line"/>
      <point x="364" y="286" type="line"/>
      <point x="358" y="454" type="line"/>
      <point x="294" y="454" type="line"/>
      <point x="235" y="286" type="line"/>
      <point x="263" y="560" type="line"/>
    </contour>
    <contour>
      <point x="63" y="353" type="line"/>
      <point x="157" y="353" type="line"/>
      <point x="169" y="428" type="line"/>
      <point x="75" y="428" type="line"/>
    </contour>
    <contour>
      <point x="484" y="353" type="line"/>
      <point x="559" y="353" type="line"/>
      <point x="570" y="428" type="line"/>
      <point x="487" y="428" type="line"/>
    </contour>
    <contour>
      <point x="28" y="132" type="line"/>
      <point x="175" y="132" type="line"/>
      <point x="162" y="206" type="line"/>
      <point x="40" y="206" type="line"/>
    </contour>
    <contour>
      <point x="397" y="132" type="line"/>
      <point x="525" y="132" type="line"/>
      <point x="536" y="206" type="line"/>
      <point x="408" y="206" type="line"/>
    </contour>
  </outline>
</glyph>
<glyph name="zero.smcp" format="1">
  <advance width="535"/>
  <note>
    GF Latin Plus glyph
  </note>
  <outline>
    <contour>
      <point x="236" y="190" type="curve" smooth="yes"/>
      <point x="267" y="386" type="line" smooth="yes"/>
      <point x="271" y="414"/>
      <point x="282" y="426"/>
      <point x="307" y="426" type="curve" smooth="yes"/>
      <point x="363" y="426" type="line" smooth="yes"/>
      <point x="385" y="426"/>
      <point x="391" y="417"/>
      <point x="392" y="399" type="curve" smooth="yes"/>
      <point x="392" y="396"/>
      <point x="391" y="391"/>
      <point x="389" y="375" type="curve" smooth="yes"/>
      <point x="357" y="173" type="line" smooth="yes"/>
      <point x="352" y="144"/>
      <point x="336" y="134"/>
      <point x="311" y="134" type="curve" smooth="yes"/>
      <point x="269" y="134" type="line" smooth="yes"/>
      <point x="245" y="134"/>
      <point x="233" y="140"/>
      <point x="233" y="161" type="curve" smooth="yes"/>
      <point x="233" y="167"/>
      <point x="235" y="181"/>
    </contour>
    <contour>
      <point x="68" y="176" type="line" smooth="yes"/>
      <point x="62" y="136"/>
      <point x="62" y="124"/>
      <point x="62" y="113" type="curve" smooth="yes"/>
      <point x="62" y="36"/>
      <point x="107" y="-4"/>
      <point x="204" y="-4" type="curve" smooth="yes"/>
      <point x="334" y="-4" type="line" smooth="yes"/>
      <point x="437" y="-4"/>
      <point x="502" y="55"/>
      <point x="517" y="150" type="curve" smooth="yes"/>
      <point x="554" y="386" type="line" smooth="yes"/>
      <point x="559" y="417"/>
      <point x="561" y="431"/>
      <point x="561" y="443" type="curve" smooth="yes"/>
      <point x="561" y="521"/>
      <point x="512" y="565"/>
      <point x="426" y="565" type="curve" smooth="yes"/>
      <point x="295" y="565" type="line" smooth="yes"/>
      <point x="189" y="565"/>
      <point x="122" y="507"/>
      <point x="104" y="402" type="curve" smooth="yes"/>
    </contour>
  </outline>
</glyph>
